%TF.GenerationSoftware,KiCad,Pcbnew,(7.0.0)*%
%TF.CreationDate,2023-03-19T21:05:42+01:00*%
%TF.ProjectId,ESP32-Touch_board,45535033-322d-4546-9f75-63685f626f61,rev?*%
%TF.SameCoordinates,Original*%
%TF.FileFunction,Legend,Top*%
%TF.FilePolarity,Positive*%
%FSLAX46Y46*%
G04 Gerber Fmt 4.6, Leading zero omitted, Abs format (unit mm)*
G04 Created by KiCad (PCBNEW (7.0.0)) date 2023-03-19 21:05:42*
%MOMM*%
%LPD*%
G01*
G04 APERTURE LIST*
%ADD10C,0.100000*%
%ADD11C,0.087500*%
%ADD12C,0.050000*%
%ADD13C,0.120000*%
%ADD14C,0.127000*%
%ADD15C,0.200000*%
G04 APERTURE END LIST*
D10*
X84515000Y-97375000D02*
X89505000Y-97375000D01*
X89505000Y-97375000D02*
X89505000Y-109685000D01*
X89505000Y-109685000D02*
X84515000Y-109685000D01*
X84515000Y-109685000D02*
X84515000Y-97375000D01*
X85183333Y-106216000D02*
X85116666Y-106182666D01*
X85116666Y-106182666D02*
X85016666Y-106182666D01*
X85016666Y-106182666D02*
X84916666Y-106216000D01*
X84916666Y-106216000D02*
X84850000Y-106282666D01*
X84850000Y-106282666D02*
X84816666Y-106349333D01*
X84816666Y-106349333D02*
X84783333Y-106482666D01*
X84783333Y-106482666D02*
X84783333Y-106582666D01*
X84783333Y-106582666D02*
X84816666Y-106716000D01*
X84816666Y-106716000D02*
X84850000Y-106782666D01*
X84850000Y-106782666D02*
X84916666Y-106849333D01*
X84916666Y-106849333D02*
X85016666Y-106882666D01*
X85016666Y-106882666D02*
X85083333Y-106882666D01*
X85083333Y-106882666D02*
X85183333Y-106849333D01*
X85183333Y-106849333D02*
X85216666Y-106816000D01*
X85216666Y-106816000D02*
X85216666Y-106582666D01*
X85216666Y-106582666D02*
X85083333Y-106582666D01*
X85516666Y-106882666D02*
X85516666Y-106182666D01*
X85516666Y-106182666D02*
X85916666Y-106882666D01*
X85916666Y-106882666D02*
X85916666Y-106182666D01*
X86249999Y-106882666D02*
X86249999Y-106182666D01*
X86249999Y-106182666D02*
X86416666Y-106182666D01*
X86416666Y-106182666D02*
X86516666Y-106216000D01*
X86516666Y-106216000D02*
X86583333Y-106282666D01*
X86583333Y-106282666D02*
X86616666Y-106349333D01*
X86616666Y-106349333D02*
X86649999Y-106482666D01*
X86649999Y-106482666D02*
X86649999Y-106582666D01*
X86649999Y-106582666D02*
X86616666Y-106716000D01*
X86616666Y-106716000D02*
X86583333Y-106782666D01*
X86583333Y-106782666D02*
X86516666Y-106849333D01*
X86516666Y-106849333D02*
X86416666Y-106882666D01*
X86416666Y-106882666D02*
X86249999Y-106882666D01*
X84756666Y-98172666D02*
X85156666Y-98172666D01*
X84956666Y-98872666D02*
X84956666Y-98172666D01*
X85323333Y-98172666D02*
X85789999Y-98872666D01*
X85789999Y-98172666D02*
X85323333Y-98872666D01*
X84816666Y-104822666D02*
X84816666Y-104122666D01*
X84816666Y-104122666D02*
X84983333Y-104122666D01*
X84983333Y-104122666D02*
X85083333Y-104156000D01*
X85083333Y-104156000D02*
X85150000Y-104222666D01*
X85150000Y-104222666D02*
X85183333Y-104289333D01*
X85183333Y-104289333D02*
X85216666Y-104422666D01*
X85216666Y-104422666D02*
X85216666Y-104522666D01*
X85216666Y-104522666D02*
X85183333Y-104656000D01*
X85183333Y-104656000D02*
X85150000Y-104722666D01*
X85150000Y-104722666D02*
X85083333Y-104789333D01*
X85083333Y-104789333D02*
X84983333Y-104822666D01*
X84983333Y-104822666D02*
X84816666Y-104822666D01*
X85416666Y-104122666D02*
X85816666Y-104122666D01*
X85616666Y-104822666D02*
X85616666Y-104122666D01*
X86449999Y-104822666D02*
X86216666Y-104489333D01*
X86049999Y-104822666D02*
X86049999Y-104122666D01*
X86049999Y-104122666D02*
X86316666Y-104122666D01*
X86316666Y-104122666D02*
X86383333Y-104156000D01*
X86383333Y-104156000D02*
X86416666Y-104189333D01*
X86416666Y-104189333D02*
X86449999Y-104256000D01*
X86449999Y-104256000D02*
X86449999Y-104356000D01*
X86449999Y-104356000D02*
X86416666Y-104422666D01*
X86416666Y-104422666D02*
X86383333Y-104456000D01*
X86383333Y-104456000D02*
X86316666Y-104489333D01*
X86316666Y-104489333D02*
X86049999Y-104489333D01*
D11*
X73745714Y-134572285D02*
X73717142Y-134600857D01*
X73717142Y-134600857D02*
X73631428Y-134629428D01*
X73631428Y-134629428D02*
X73574285Y-134629428D01*
X73574285Y-134629428D02*
X73488571Y-134600857D01*
X73488571Y-134600857D02*
X73431428Y-134543714D01*
X73431428Y-134543714D02*
X73402857Y-134486571D01*
X73402857Y-134486571D02*
X73374285Y-134372285D01*
X73374285Y-134372285D02*
X73374285Y-134286571D01*
X73374285Y-134286571D02*
X73402857Y-134172285D01*
X73402857Y-134172285D02*
X73431428Y-134115142D01*
X73431428Y-134115142D02*
X73488571Y-134058000D01*
X73488571Y-134058000D02*
X73574285Y-134029428D01*
X73574285Y-134029428D02*
X73631428Y-134029428D01*
X73631428Y-134029428D02*
X73717142Y-134058000D01*
X73717142Y-134058000D02*
X73745714Y-134086571D01*
X73974285Y-134458000D02*
X74260000Y-134458000D01*
X73917142Y-134629428D02*
X74117142Y-134029428D01*
X74117142Y-134029428D02*
X74317142Y-134629428D01*
X74517143Y-134629428D02*
X74517143Y-134029428D01*
X74517143Y-134029428D02*
X74860000Y-134629428D01*
X74860000Y-134629428D02*
X74860000Y-134029428D01*
X75002857Y-134686571D02*
X75459999Y-134686571D01*
X75602857Y-134629428D02*
X75602857Y-134029428D01*
X75602857Y-134315142D02*
X75945714Y-134315142D01*
X75945714Y-134629428D02*
X75945714Y-134029428D01*
D10*
X75077333Y-122159999D02*
X75410666Y-121926666D01*
X75077333Y-121759999D02*
X75777333Y-121759999D01*
X75777333Y-121759999D02*
X75777333Y-122026666D01*
X75777333Y-122026666D02*
X75744000Y-122093333D01*
X75744000Y-122093333D02*
X75710666Y-122126666D01*
X75710666Y-122126666D02*
X75644000Y-122159999D01*
X75644000Y-122159999D02*
X75544000Y-122159999D01*
X75544000Y-122159999D02*
X75477333Y-122126666D01*
X75477333Y-122126666D02*
X75444000Y-122093333D01*
X75444000Y-122093333D02*
X75410666Y-122026666D01*
X75410666Y-122026666D02*
X75410666Y-121759999D01*
X75777333Y-122393333D02*
X75077333Y-122859999D01*
X75777333Y-122859999D02*
X75077333Y-122393333D01*
X75010666Y-122960000D02*
X75010666Y-123493333D01*
X75144000Y-124059999D02*
X75110666Y-124026666D01*
X75110666Y-124026666D02*
X75077333Y-123926666D01*
X75077333Y-123926666D02*
X75077333Y-123859999D01*
X75077333Y-123859999D02*
X75110666Y-123759999D01*
X75110666Y-123759999D02*
X75177333Y-123693333D01*
X75177333Y-123693333D02*
X75244000Y-123659999D01*
X75244000Y-123659999D02*
X75377333Y-123626666D01*
X75377333Y-123626666D02*
X75477333Y-123626666D01*
X75477333Y-123626666D02*
X75610666Y-123659999D01*
X75610666Y-123659999D02*
X75677333Y-123693333D01*
X75677333Y-123693333D02*
X75744000Y-123759999D01*
X75744000Y-123759999D02*
X75777333Y-123859999D01*
X75777333Y-123859999D02*
X75777333Y-123926666D01*
X75777333Y-123926666D02*
X75744000Y-124026666D01*
X75744000Y-124026666D02*
X75710666Y-124059999D01*
X75277333Y-124326666D02*
X75277333Y-124659999D01*
X75077333Y-124259999D02*
X75777333Y-124493333D01*
X75777333Y-124493333D02*
X75077333Y-124726666D01*
X75077333Y-124959999D02*
X75777333Y-124959999D01*
X75777333Y-124959999D02*
X75077333Y-125359999D01*
X75077333Y-125359999D02*
X75777333Y-125359999D01*
X88612333Y-102431666D02*
X89312333Y-102431666D01*
X89312333Y-102431666D02*
X89312333Y-102698333D01*
X89312333Y-102698333D02*
X89279000Y-102765000D01*
X89279000Y-102765000D02*
X89245666Y-102798333D01*
X89245666Y-102798333D02*
X89179000Y-102831666D01*
X89179000Y-102831666D02*
X89079000Y-102831666D01*
X89079000Y-102831666D02*
X89012333Y-102798333D01*
X89012333Y-102798333D02*
X88979000Y-102765000D01*
X88979000Y-102765000D02*
X88945666Y-102698333D01*
X88945666Y-102698333D02*
X88945666Y-102431666D01*
X88612333Y-103531666D02*
X88945666Y-103298333D01*
X88612333Y-103131666D02*
X89312333Y-103131666D01*
X89312333Y-103131666D02*
X89312333Y-103398333D01*
X89312333Y-103398333D02*
X89279000Y-103465000D01*
X89279000Y-103465000D02*
X89245666Y-103498333D01*
X89245666Y-103498333D02*
X89179000Y-103531666D01*
X89179000Y-103531666D02*
X89079000Y-103531666D01*
X89079000Y-103531666D02*
X89012333Y-103498333D01*
X89012333Y-103498333D02*
X88979000Y-103465000D01*
X88979000Y-103465000D02*
X88945666Y-103398333D01*
X88945666Y-103398333D02*
X88945666Y-103131666D01*
X89312333Y-103965000D02*
X89312333Y-104098333D01*
X89312333Y-104098333D02*
X89279000Y-104165000D01*
X89279000Y-104165000D02*
X89212333Y-104231666D01*
X89212333Y-104231666D02*
X89079000Y-104265000D01*
X89079000Y-104265000D02*
X88845666Y-104265000D01*
X88845666Y-104265000D02*
X88712333Y-104231666D01*
X88712333Y-104231666D02*
X88645666Y-104165000D01*
X88645666Y-104165000D02*
X88612333Y-104098333D01*
X88612333Y-104098333D02*
X88612333Y-103965000D01*
X88612333Y-103965000D02*
X88645666Y-103898333D01*
X88645666Y-103898333D02*
X88712333Y-103831666D01*
X88712333Y-103831666D02*
X88845666Y-103798333D01*
X88845666Y-103798333D02*
X89079000Y-103798333D01*
X89079000Y-103798333D02*
X89212333Y-103831666D01*
X89212333Y-103831666D02*
X89279000Y-103898333D01*
X89279000Y-103898333D02*
X89312333Y-103965000D01*
X89279000Y-104931666D02*
X89312333Y-104864999D01*
X89312333Y-104864999D02*
X89312333Y-104764999D01*
X89312333Y-104764999D02*
X89279000Y-104664999D01*
X89279000Y-104664999D02*
X89212333Y-104598333D01*
X89212333Y-104598333D02*
X89145666Y-104564999D01*
X89145666Y-104564999D02*
X89012333Y-104531666D01*
X89012333Y-104531666D02*
X88912333Y-104531666D01*
X88912333Y-104531666D02*
X88779000Y-104564999D01*
X88779000Y-104564999D02*
X88712333Y-104598333D01*
X88712333Y-104598333D02*
X88645666Y-104664999D01*
X88645666Y-104664999D02*
X88612333Y-104764999D01*
X88612333Y-104764999D02*
X88612333Y-104831666D01*
X88612333Y-104831666D02*
X88645666Y-104931666D01*
X88645666Y-104931666D02*
X88679000Y-104964999D01*
X88679000Y-104964999D02*
X88912333Y-104964999D01*
X88912333Y-104964999D02*
X88912333Y-104831666D01*
D11*
X70467142Y-134078000D02*
X70410000Y-134049428D01*
X70410000Y-134049428D02*
X70324285Y-134049428D01*
X70324285Y-134049428D02*
X70238571Y-134078000D01*
X70238571Y-134078000D02*
X70181428Y-134135142D01*
X70181428Y-134135142D02*
X70152857Y-134192285D01*
X70152857Y-134192285D02*
X70124285Y-134306571D01*
X70124285Y-134306571D02*
X70124285Y-134392285D01*
X70124285Y-134392285D02*
X70152857Y-134506571D01*
X70152857Y-134506571D02*
X70181428Y-134563714D01*
X70181428Y-134563714D02*
X70238571Y-134620857D01*
X70238571Y-134620857D02*
X70324285Y-134649428D01*
X70324285Y-134649428D02*
X70381428Y-134649428D01*
X70381428Y-134649428D02*
X70467142Y-134620857D01*
X70467142Y-134620857D02*
X70495714Y-134592285D01*
X70495714Y-134592285D02*
X70495714Y-134392285D01*
X70495714Y-134392285D02*
X70381428Y-134392285D01*
X70752857Y-134649428D02*
X70752857Y-134049428D01*
X70752857Y-134049428D02*
X71095714Y-134649428D01*
X71095714Y-134649428D02*
X71095714Y-134049428D01*
X71381428Y-134649428D02*
X71381428Y-134049428D01*
X71381428Y-134049428D02*
X71524285Y-134049428D01*
X71524285Y-134049428D02*
X71609999Y-134078000D01*
X71609999Y-134078000D02*
X71667142Y-134135142D01*
X71667142Y-134135142D02*
X71695713Y-134192285D01*
X71695713Y-134192285D02*
X71724285Y-134306571D01*
X71724285Y-134306571D02*
X71724285Y-134392285D01*
X71724285Y-134392285D02*
X71695713Y-134506571D01*
X71695713Y-134506571D02*
X71667142Y-134563714D01*
X71667142Y-134563714D02*
X71609999Y-134620857D01*
X71609999Y-134620857D02*
X71524285Y-134649428D01*
X71524285Y-134649428D02*
X71381428Y-134649428D01*
D10*
X85216666Y-102872666D02*
X84983333Y-102539333D01*
X84816666Y-102872666D02*
X84816666Y-102172666D01*
X84816666Y-102172666D02*
X85083333Y-102172666D01*
X85083333Y-102172666D02*
X85150000Y-102206000D01*
X85150000Y-102206000D02*
X85183333Y-102239333D01*
X85183333Y-102239333D02*
X85216666Y-102306000D01*
X85216666Y-102306000D02*
X85216666Y-102406000D01*
X85216666Y-102406000D02*
X85183333Y-102472666D01*
X85183333Y-102472666D02*
X85150000Y-102506000D01*
X85150000Y-102506000D02*
X85083333Y-102539333D01*
X85083333Y-102539333D02*
X84816666Y-102539333D01*
X85416666Y-102172666D02*
X85816666Y-102172666D01*
X85616666Y-102872666D02*
X85616666Y-102172666D01*
X86016666Y-102839333D02*
X86116666Y-102872666D01*
X86116666Y-102872666D02*
X86283333Y-102872666D01*
X86283333Y-102872666D02*
X86349999Y-102839333D01*
X86349999Y-102839333D02*
X86383333Y-102806000D01*
X86383333Y-102806000D02*
X86416666Y-102739333D01*
X86416666Y-102739333D02*
X86416666Y-102672666D01*
X86416666Y-102672666D02*
X86383333Y-102606000D01*
X86383333Y-102606000D02*
X86349999Y-102572666D01*
X86349999Y-102572666D02*
X86283333Y-102539333D01*
X86283333Y-102539333D02*
X86149999Y-102506000D01*
X86149999Y-102506000D02*
X86083333Y-102472666D01*
X86083333Y-102472666D02*
X86049999Y-102439333D01*
X86049999Y-102439333D02*
X86016666Y-102372666D01*
X86016666Y-102372666D02*
X86016666Y-102306000D01*
X86016666Y-102306000D02*
X86049999Y-102239333D01*
X86049999Y-102239333D02*
X86083333Y-102206000D01*
X86083333Y-102206000D02*
X86149999Y-102172666D01*
X86149999Y-102172666D02*
X86316666Y-102172666D01*
X86316666Y-102172666D02*
X86416666Y-102206000D01*
D11*
X77525714Y-134562285D02*
X77497142Y-134590857D01*
X77497142Y-134590857D02*
X77411428Y-134619428D01*
X77411428Y-134619428D02*
X77354285Y-134619428D01*
X77354285Y-134619428D02*
X77268571Y-134590857D01*
X77268571Y-134590857D02*
X77211428Y-134533714D01*
X77211428Y-134533714D02*
X77182857Y-134476571D01*
X77182857Y-134476571D02*
X77154285Y-134362285D01*
X77154285Y-134362285D02*
X77154285Y-134276571D01*
X77154285Y-134276571D02*
X77182857Y-134162285D01*
X77182857Y-134162285D02*
X77211428Y-134105142D01*
X77211428Y-134105142D02*
X77268571Y-134048000D01*
X77268571Y-134048000D02*
X77354285Y-134019428D01*
X77354285Y-134019428D02*
X77411428Y-134019428D01*
X77411428Y-134019428D02*
X77497142Y-134048000D01*
X77497142Y-134048000D02*
X77525714Y-134076571D01*
X77754285Y-134448000D02*
X78040000Y-134448000D01*
X77697142Y-134619428D02*
X77897142Y-134019428D01*
X77897142Y-134019428D02*
X78097142Y-134619428D01*
X78297143Y-134619428D02*
X78297143Y-134019428D01*
X78297143Y-134019428D02*
X78640000Y-134619428D01*
X78640000Y-134619428D02*
X78640000Y-134019428D01*
X78782857Y-134676571D02*
X79239999Y-134676571D01*
X79668571Y-134619428D02*
X79382857Y-134619428D01*
X79382857Y-134619428D02*
X79382857Y-134019428D01*
D10*
X78222333Y-121836666D02*
X78222333Y-122236666D01*
X77522333Y-122036666D02*
X78222333Y-122036666D01*
X78222333Y-122403333D02*
X77522333Y-122869999D01*
X78222333Y-122869999D02*
X77522333Y-122403333D01*
X77455666Y-122970000D02*
X77455666Y-123503333D01*
X77589000Y-124069999D02*
X77555666Y-124036666D01*
X77555666Y-124036666D02*
X77522333Y-123936666D01*
X77522333Y-123936666D02*
X77522333Y-123869999D01*
X77522333Y-123869999D02*
X77555666Y-123769999D01*
X77555666Y-123769999D02*
X77622333Y-123703333D01*
X77622333Y-123703333D02*
X77689000Y-123669999D01*
X77689000Y-123669999D02*
X77822333Y-123636666D01*
X77822333Y-123636666D02*
X77922333Y-123636666D01*
X77922333Y-123636666D02*
X78055666Y-123669999D01*
X78055666Y-123669999D02*
X78122333Y-123703333D01*
X78122333Y-123703333D02*
X78189000Y-123769999D01*
X78189000Y-123769999D02*
X78222333Y-123869999D01*
X78222333Y-123869999D02*
X78222333Y-123936666D01*
X78222333Y-123936666D02*
X78189000Y-124036666D01*
X78189000Y-124036666D02*
X78155666Y-124069999D01*
X77722333Y-124336666D02*
X77722333Y-124669999D01*
X77522333Y-124269999D02*
X78222333Y-124503333D01*
X78222333Y-124503333D02*
X77522333Y-124736666D01*
X77522333Y-124969999D02*
X78222333Y-124969999D01*
X78222333Y-124969999D02*
X77522333Y-125369999D01*
X77522333Y-125369999D02*
X78222333Y-125369999D01*
X85216666Y-100892666D02*
X84983333Y-100559333D01*
X84816666Y-100892666D02*
X84816666Y-100192666D01*
X84816666Y-100192666D02*
X85083333Y-100192666D01*
X85083333Y-100192666D02*
X85150000Y-100226000D01*
X85150000Y-100226000D02*
X85183333Y-100259333D01*
X85183333Y-100259333D02*
X85216666Y-100326000D01*
X85216666Y-100326000D02*
X85216666Y-100426000D01*
X85216666Y-100426000D02*
X85183333Y-100492666D01*
X85183333Y-100492666D02*
X85150000Y-100526000D01*
X85150000Y-100526000D02*
X85083333Y-100559333D01*
X85083333Y-100559333D02*
X84816666Y-100559333D01*
X85450000Y-100192666D02*
X85916666Y-100892666D01*
X85916666Y-100192666D02*
X85450000Y-100892666D01*
D11*
X65867666Y-113300000D02*
X65867666Y-112866666D01*
X65867666Y-112866666D02*
X66134333Y-113100000D01*
X66134333Y-113100000D02*
X66134333Y-113000000D01*
X66134333Y-113000000D02*
X66167666Y-112933333D01*
X66167666Y-112933333D02*
X66201000Y-112900000D01*
X66201000Y-112900000D02*
X66267666Y-112866666D01*
X66267666Y-112866666D02*
X66434333Y-112866666D01*
X66434333Y-112866666D02*
X66501000Y-112900000D01*
X66501000Y-112900000D02*
X66534333Y-112933333D01*
X66534333Y-112933333D02*
X66567666Y-113000000D01*
X66567666Y-113000000D02*
X66567666Y-113200000D01*
X66567666Y-113200000D02*
X66534333Y-113266666D01*
X66534333Y-113266666D02*
X66501000Y-113300000D01*
X65867666Y-112666666D02*
X66567666Y-112433333D01*
X66567666Y-112433333D02*
X65867666Y-112199999D01*
X65867666Y-112033333D02*
X65867666Y-111599999D01*
X65867666Y-111599999D02*
X66134333Y-111833333D01*
X66134333Y-111833333D02*
X66134333Y-111733333D01*
X66134333Y-111733333D02*
X66167666Y-111666666D01*
X66167666Y-111666666D02*
X66201000Y-111633333D01*
X66201000Y-111633333D02*
X66267666Y-111599999D01*
X66267666Y-111599999D02*
X66434333Y-111599999D01*
X66434333Y-111599999D02*
X66501000Y-111633333D01*
X66501000Y-111633333D02*
X66534333Y-111666666D01*
X66534333Y-111666666D02*
X66567666Y-111733333D01*
X66567666Y-111733333D02*
X66567666Y-111933333D01*
X66567666Y-111933333D02*
X66534333Y-111999999D01*
X66534333Y-111999999D02*
X66501000Y-112033333D01*
D10*
X85646666Y-114277666D02*
X86046666Y-114277666D01*
X85846666Y-114977666D02*
X85846666Y-114277666D01*
X86213333Y-114277666D02*
X86679999Y-114977666D01*
X86679999Y-114277666D02*
X86213333Y-114977666D01*
X54732380Y-110927809D02*
X54808571Y-110965904D01*
X54808571Y-110965904D02*
X54960952Y-110965904D01*
X54960952Y-110965904D02*
X55037142Y-110927809D01*
X55037142Y-110927809D02*
X55075238Y-110851619D01*
X55075238Y-110851619D02*
X55075238Y-110813523D01*
X55075238Y-110813523D02*
X55037142Y-110737333D01*
X55037142Y-110737333D02*
X54960952Y-110699238D01*
X54960952Y-110699238D02*
X54846666Y-110699238D01*
X54846666Y-110699238D02*
X54770476Y-110661142D01*
X54770476Y-110661142D02*
X54732380Y-110584952D01*
X54732380Y-110584952D02*
X54732380Y-110546857D01*
X54732380Y-110546857D02*
X54770476Y-110470666D01*
X54770476Y-110470666D02*
X54846666Y-110432571D01*
X54846666Y-110432571D02*
X54960952Y-110432571D01*
X54960952Y-110432571D02*
X55037142Y-110470666D01*
X55722857Y-110927809D02*
X55646666Y-110965904D01*
X55646666Y-110965904D02*
X55494285Y-110965904D01*
X55494285Y-110965904D02*
X55418095Y-110927809D01*
X55418095Y-110927809D02*
X55379999Y-110851619D01*
X55379999Y-110851619D02*
X55379999Y-110546857D01*
X55379999Y-110546857D02*
X55418095Y-110470666D01*
X55418095Y-110470666D02*
X55494285Y-110432571D01*
X55494285Y-110432571D02*
X55646666Y-110432571D01*
X55646666Y-110432571D02*
X55722857Y-110470666D01*
X55722857Y-110470666D02*
X55760952Y-110546857D01*
X55760952Y-110546857D02*
X55760952Y-110623047D01*
X55760952Y-110623047D02*
X55379999Y-110699238D01*
X56103809Y-110432571D02*
X56103809Y-110965904D01*
X56103809Y-110508761D02*
X56141904Y-110470666D01*
X56141904Y-110470666D02*
X56218094Y-110432571D01*
X56218094Y-110432571D02*
X56332380Y-110432571D01*
X56332380Y-110432571D02*
X56408571Y-110470666D01*
X56408571Y-110470666D02*
X56446666Y-110546857D01*
X56446666Y-110546857D02*
X56446666Y-110965904D01*
X56789523Y-110927809D02*
X56865714Y-110965904D01*
X56865714Y-110965904D02*
X57018095Y-110965904D01*
X57018095Y-110965904D02*
X57094285Y-110927809D01*
X57094285Y-110927809D02*
X57132381Y-110851619D01*
X57132381Y-110851619D02*
X57132381Y-110813523D01*
X57132381Y-110813523D02*
X57094285Y-110737333D01*
X57094285Y-110737333D02*
X57018095Y-110699238D01*
X57018095Y-110699238D02*
X56903809Y-110699238D01*
X56903809Y-110699238D02*
X56827619Y-110661142D01*
X56827619Y-110661142D02*
X56789523Y-110584952D01*
X56789523Y-110584952D02*
X56789523Y-110546857D01*
X56789523Y-110546857D02*
X56827619Y-110470666D01*
X56827619Y-110470666D02*
X56903809Y-110432571D01*
X56903809Y-110432571D02*
X57018095Y-110432571D01*
X57018095Y-110432571D02*
X57094285Y-110470666D01*
X57589523Y-110965904D02*
X57513333Y-110927809D01*
X57513333Y-110927809D02*
X57475238Y-110889714D01*
X57475238Y-110889714D02*
X57437142Y-110813523D01*
X57437142Y-110813523D02*
X57437142Y-110584952D01*
X57437142Y-110584952D02*
X57475238Y-110508761D01*
X57475238Y-110508761D02*
X57513333Y-110470666D01*
X57513333Y-110470666D02*
X57589523Y-110432571D01*
X57589523Y-110432571D02*
X57703809Y-110432571D01*
X57703809Y-110432571D02*
X57780000Y-110470666D01*
X57780000Y-110470666D02*
X57818095Y-110508761D01*
X57818095Y-110508761D02*
X57856190Y-110584952D01*
X57856190Y-110584952D02*
X57856190Y-110813523D01*
X57856190Y-110813523D02*
X57818095Y-110889714D01*
X57818095Y-110889714D02*
X57780000Y-110927809D01*
X57780000Y-110927809D02*
X57703809Y-110965904D01*
X57703809Y-110965904D02*
X57589523Y-110965904D01*
X58199048Y-110965904D02*
X58199048Y-110432571D01*
X58199048Y-110584952D02*
X58237143Y-110508761D01*
X58237143Y-110508761D02*
X58275238Y-110470666D01*
X58275238Y-110470666D02*
X58351429Y-110432571D01*
X58351429Y-110432571D02*
X58427619Y-110432571D01*
X59174286Y-110965904D02*
X59174286Y-110165904D01*
X59174286Y-110470666D02*
X59250476Y-110432571D01*
X59250476Y-110432571D02*
X59402857Y-110432571D01*
X59402857Y-110432571D02*
X59479048Y-110470666D01*
X59479048Y-110470666D02*
X59517143Y-110508761D01*
X59517143Y-110508761D02*
X59555238Y-110584952D01*
X59555238Y-110584952D02*
X59555238Y-110813523D01*
X59555238Y-110813523D02*
X59517143Y-110889714D01*
X59517143Y-110889714D02*
X59479048Y-110927809D01*
X59479048Y-110927809D02*
X59402857Y-110965904D01*
X59402857Y-110965904D02*
X59250476Y-110965904D01*
X59250476Y-110965904D02*
X59174286Y-110927809D01*
X60012381Y-110965904D02*
X59936191Y-110927809D01*
X59936191Y-110927809D02*
X59898096Y-110889714D01*
X59898096Y-110889714D02*
X59860000Y-110813523D01*
X59860000Y-110813523D02*
X59860000Y-110584952D01*
X59860000Y-110584952D02*
X59898096Y-110508761D01*
X59898096Y-110508761D02*
X59936191Y-110470666D01*
X59936191Y-110470666D02*
X60012381Y-110432571D01*
X60012381Y-110432571D02*
X60126667Y-110432571D01*
X60126667Y-110432571D02*
X60202858Y-110470666D01*
X60202858Y-110470666D02*
X60240953Y-110508761D01*
X60240953Y-110508761D02*
X60279048Y-110584952D01*
X60279048Y-110584952D02*
X60279048Y-110813523D01*
X60279048Y-110813523D02*
X60240953Y-110889714D01*
X60240953Y-110889714D02*
X60202858Y-110927809D01*
X60202858Y-110927809D02*
X60126667Y-110965904D01*
X60126667Y-110965904D02*
X60012381Y-110965904D01*
X60964763Y-110965904D02*
X60964763Y-110546857D01*
X60964763Y-110546857D02*
X60926668Y-110470666D01*
X60926668Y-110470666D02*
X60850477Y-110432571D01*
X60850477Y-110432571D02*
X60698096Y-110432571D01*
X60698096Y-110432571D02*
X60621906Y-110470666D01*
X60964763Y-110927809D02*
X60888572Y-110965904D01*
X60888572Y-110965904D02*
X60698096Y-110965904D01*
X60698096Y-110965904D02*
X60621906Y-110927809D01*
X60621906Y-110927809D02*
X60583810Y-110851619D01*
X60583810Y-110851619D02*
X60583810Y-110775428D01*
X60583810Y-110775428D02*
X60621906Y-110699238D01*
X60621906Y-110699238D02*
X60698096Y-110661142D01*
X60698096Y-110661142D02*
X60888572Y-110661142D01*
X60888572Y-110661142D02*
X60964763Y-110623047D01*
X61345716Y-110965904D02*
X61345716Y-110432571D01*
X61345716Y-110584952D02*
X61383811Y-110508761D01*
X61383811Y-110508761D02*
X61421906Y-110470666D01*
X61421906Y-110470666D02*
X61498097Y-110432571D01*
X61498097Y-110432571D02*
X61574287Y-110432571D01*
X62183811Y-110965904D02*
X62183811Y-110165904D01*
X62183811Y-110927809D02*
X62107620Y-110965904D01*
X62107620Y-110965904D02*
X61955239Y-110965904D01*
X61955239Y-110965904D02*
X61879049Y-110927809D01*
X61879049Y-110927809D02*
X61840954Y-110889714D01*
X61840954Y-110889714D02*
X61802858Y-110813523D01*
X61802858Y-110813523D02*
X61802858Y-110584952D01*
X61802858Y-110584952D02*
X61840954Y-110508761D01*
X61840954Y-110508761D02*
X61879049Y-110470666D01*
X61879049Y-110470666D02*
X61955239Y-110432571D01*
X61955239Y-110432571D02*
X62107620Y-110432571D01*
X62107620Y-110432571D02*
X62183811Y-110470666D01*
X62968573Y-110432571D02*
X63159049Y-110965904D01*
X63159049Y-110965904D02*
X63349526Y-110432571D01*
X63806669Y-110165904D02*
X63882859Y-110165904D01*
X63882859Y-110165904D02*
X63959050Y-110204000D01*
X63959050Y-110204000D02*
X63997145Y-110242095D01*
X63997145Y-110242095D02*
X64035240Y-110318285D01*
X64035240Y-110318285D02*
X64073335Y-110470666D01*
X64073335Y-110470666D02*
X64073335Y-110661142D01*
X64073335Y-110661142D02*
X64035240Y-110813523D01*
X64035240Y-110813523D02*
X63997145Y-110889714D01*
X63997145Y-110889714D02*
X63959050Y-110927809D01*
X63959050Y-110927809D02*
X63882859Y-110965904D01*
X63882859Y-110965904D02*
X63806669Y-110965904D01*
X63806669Y-110965904D02*
X63730478Y-110927809D01*
X63730478Y-110927809D02*
X63692383Y-110889714D01*
X63692383Y-110889714D02*
X63654288Y-110813523D01*
X63654288Y-110813523D02*
X63616192Y-110661142D01*
X63616192Y-110661142D02*
X63616192Y-110470666D01*
X63616192Y-110470666D02*
X63654288Y-110318285D01*
X63654288Y-110318285D02*
X63692383Y-110242095D01*
X63692383Y-110242095D02*
X63730478Y-110204000D01*
X63730478Y-110204000D02*
X63806669Y-110165904D01*
X64416193Y-110889714D02*
X64454288Y-110927809D01*
X64454288Y-110927809D02*
X64416193Y-110965904D01*
X64416193Y-110965904D02*
X64378097Y-110927809D01*
X64378097Y-110927809D02*
X64416193Y-110889714D01*
X64416193Y-110889714D02*
X64416193Y-110965904D01*
X65216192Y-110965904D02*
X64759049Y-110965904D01*
X64987621Y-110965904D02*
X64987621Y-110165904D01*
X64987621Y-110165904D02*
X64911430Y-110280190D01*
X64911430Y-110280190D02*
X64835240Y-110356380D01*
X64835240Y-110356380D02*
X64759049Y-110394476D01*
X86006666Y-117277666D02*
X85773333Y-116944333D01*
X85606666Y-117277666D02*
X85606666Y-116577666D01*
X85606666Y-116577666D02*
X85873333Y-116577666D01*
X85873333Y-116577666D02*
X85940000Y-116611000D01*
X85940000Y-116611000D02*
X85973333Y-116644333D01*
X85973333Y-116644333D02*
X86006666Y-116711000D01*
X86006666Y-116711000D02*
X86006666Y-116811000D01*
X86006666Y-116811000D02*
X85973333Y-116877666D01*
X85973333Y-116877666D02*
X85940000Y-116911000D01*
X85940000Y-116911000D02*
X85873333Y-116944333D01*
X85873333Y-116944333D02*
X85606666Y-116944333D01*
X86240000Y-116577666D02*
X86706666Y-117277666D01*
X86706666Y-116577666D02*
X86240000Y-117277666D01*
X84750000Y-108242666D02*
X85183333Y-108242666D01*
X85183333Y-108242666D02*
X84950000Y-108509333D01*
X84950000Y-108509333D02*
X85050000Y-108509333D01*
X85050000Y-108509333D02*
X85116666Y-108542666D01*
X85116666Y-108542666D02*
X85150000Y-108576000D01*
X85150000Y-108576000D02*
X85183333Y-108642666D01*
X85183333Y-108642666D02*
X85183333Y-108809333D01*
X85183333Y-108809333D02*
X85150000Y-108876000D01*
X85150000Y-108876000D02*
X85116666Y-108909333D01*
X85116666Y-108909333D02*
X85050000Y-108942666D01*
X85050000Y-108942666D02*
X84850000Y-108942666D01*
X84850000Y-108942666D02*
X84783333Y-108909333D01*
X84783333Y-108909333D02*
X84750000Y-108876000D01*
X85383333Y-108242666D02*
X85616667Y-108942666D01*
X85616667Y-108942666D02*
X85850000Y-108242666D01*
X86016667Y-108242666D02*
X86450000Y-108242666D01*
X86450000Y-108242666D02*
X86216667Y-108509333D01*
X86216667Y-108509333D02*
X86316667Y-108509333D01*
X86316667Y-108509333D02*
X86383333Y-108542666D01*
X86383333Y-108542666D02*
X86416667Y-108576000D01*
X86416667Y-108576000D02*
X86450000Y-108642666D01*
X86450000Y-108642666D02*
X86450000Y-108809333D01*
X86450000Y-108809333D02*
X86416667Y-108876000D01*
X86416667Y-108876000D02*
X86383333Y-108909333D01*
X86383333Y-108909333D02*
X86316667Y-108942666D01*
X86316667Y-108942666D02*
X86116667Y-108942666D01*
X86116667Y-108942666D02*
X86050000Y-108909333D01*
X86050000Y-108909333D02*
X86016667Y-108876000D01*
D11*
X66022857Y-134420857D02*
X66480000Y-134420857D01*
X66251428Y-134649428D02*
X66251428Y-134192285D01*
X66737142Y-134106571D02*
X66765714Y-134078000D01*
X66765714Y-134078000D02*
X66822857Y-134049428D01*
X66822857Y-134049428D02*
X66965714Y-134049428D01*
X66965714Y-134049428D02*
X67022857Y-134078000D01*
X67022857Y-134078000D02*
X67051428Y-134106571D01*
X67051428Y-134106571D02*
X67079999Y-134163714D01*
X67079999Y-134163714D02*
X67079999Y-134220857D01*
X67079999Y-134220857D02*
X67051428Y-134306571D01*
X67051428Y-134306571D02*
X66708571Y-134649428D01*
X66708571Y-134649428D02*
X67079999Y-134649428D01*
X67594286Y-134249428D02*
X67594286Y-134649428D01*
X67451428Y-134020857D02*
X67308571Y-134449428D01*
X67308571Y-134449428D02*
X67680000Y-134449428D01*
X67822857Y-134049428D02*
X68022857Y-134649428D01*
X68022857Y-134649428D02*
X68222857Y-134049428D01*
D10*
%TO.C,Q2*%
X80443809Y-106960095D02*
X80367619Y-106922000D01*
X80367619Y-106922000D02*
X80291428Y-106845809D01*
X80291428Y-106845809D02*
X80177142Y-106731523D01*
X80177142Y-106731523D02*
X80100952Y-106693428D01*
X80100952Y-106693428D02*
X80024761Y-106693428D01*
X80062857Y-106883904D02*
X79986666Y-106845809D01*
X79986666Y-106845809D02*
X79910476Y-106769619D01*
X79910476Y-106769619D02*
X79872380Y-106617238D01*
X79872380Y-106617238D02*
X79872380Y-106350571D01*
X79872380Y-106350571D02*
X79910476Y-106198190D01*
X79910476Y-106198190D02*
X79986666Y-106122000D01*
X79986666Y-106122000D02*
X80062857Y-106083904D01*
X80062857Y-106083904D02*
X80215238Y-106083904D01*
X80215238Y-106083904D02*
X80291428Y-106122000D01*
X80291428Y-106122000D02*
X80367619Y-106198190D01*
X80367619Y-106198190D02*
X80405714Y-106350571D01*
X80405714Y-106350571D02*
X80405714Y-106617238D01*
X80405714Y-106617238D02*
X80367619Y-106769619D01*
X80367619Y-106769619D02*
X80291428Y-106845809D01*
X80291428Y-106845809D02*
X80215238Y-106883904D01*
X80215238Y-106883904D02*
X80062857Y-106883904D01*
X80710475Y-106160095D02*
X80748571Y-106122000D01*
X80748571Y-106122000D02*
X80824761Y-106083904D01*
X80824761Y-106083904D02*
X81015237Y-106083904D01*
X81015237Y-106083904D02*
X81091428Y-106122000D01*
X81091428Y-106122000D02*
X81129523Y-106160095D01*
X81129523Y-106160095D02*
X81167618Y-106236285D01*
X81167618Y-106236285D02*
X81167618Y-106312476D01*
X81167618Y-106312476D02*
X81129523Y-106426761D01*
X81129523Y-106426761D02*
X80672380Y-106883904D01*
X80672380Y-106883904D02*
X81167618Y-106883904D01*
%TO.C,J3*%
X89113333Y-127133904D02*
X89113333Y-127705333D01*
X89113333Y-127705333D02*
X89075238Y-127819619D01*
X89075238Y-127819619D02*
X88999047Y-127895809D01*
X88999047Y-127895809D02*
X88884762Y-127933904D01*
X88884762Y-127933904D02*
X88808571Y-127933904D01*
X89418095Y-127133904D02*
X89913333Y-127133904D01*
X89913333Y-127133904D02*
X89646667Y-127438666D01*
X89646667Y-127438666D02*
X89760952Y-127438666D01*
X89760952Y-127438666D02*
X89837143Y-127476761D01*
X89837143Y-127476761D02*
X89875238Y-127514857D01*
X89875238Y-127514857D02*
X89913333Y-127591047D01*
X89913333Y-127591047D02*
X89913333Y-127781523D01*
X89913333Y-127781523D02*
X89875238Y-127857714D01*
X89875238Y-127857714D02*
X89837143Y-127895809D01*
X89837143Y-127895809D02*
X89760952Y-127933904D01*
X89760952Y-127933904D02*
X89532381Y-127933904D01*
X89532381Y-127933904D02*
X89456190Y-127895809D01*
X89456190Y-127895809D02*
X89418095Y-127857714D01*
%TO.C,R10*%
X59815714Y-104363904D02*
X59549047Y-103982952D01*
X59358571Y-104363904D02*
X59358571Y-103563904D01*
X59358571Y-103563904D02*
X59663333Y-103563904D01*
X59663333Y-103563904D02*
X59739523Y-103602000D01*
X59739523Y-103602000D02*
X59777618Y-103640095D01*
X59777618Y-103640095D02*
X59815714Y-103716285D01*
X59815714Y-103716285D02*
X59815714Y-103830571D01*
X59815714Y-103830571D02*
X59777618Y-103906761D01*
X59777618Y-103906761D02*
X59739523Y-103944857D01*
X59739523Y-103944857D02*
X59663333Y-103982952D01*
X59663333Y-103982952D02*
X59358571Y-103982952D01*
X60577618Y-104363904D02*
X60120475Y-104363904D01*
X60349047Y-104363904D02*
X60349047Y-103563904D01*
X60349047Y-103563904D02*
X60272856Y-103678190D01*
X60272856Y-103678190D02*
X60196666Y-103754380D01*
X60196666Y-103754380D02*
X60120475Y-103792476D01*
X61072857Y-103563904D02*
X61149047Y-103563904D01*
X61149047Y-103563904D02*
X61225238Y-103602000D01*
X61225238Y-103602000D02*
X61263333Y-103640095D01*
X61263333Y-103640095D02*
X61301428Y-103716285D01*
X61301428Y-103716285D02*
X61339523Y-103868666D01*
X61339523Y-103868666D02*
X61339523Y-104059142D01*
X61339523Y-104059142D02*
X61301428Y-104211523D01*
X61301428Y-104211523D02*
X61263333Y-104287714D01*
X61263333Y-104287714D02*
X61225238Y-104325809D01*
X61225238Y-104325809D02*
X61149047Y-104363904D01*
X61149047Y-104363904D02*
X61072857Y-104363904D01*
X61072857Y-104363904D02*
X60996666Y-104325809D01*
X60996666Y-104325809D02*
X60958571Y-104287714D01*
X60958571Y-104287714D02*
X60920476Y-104211523D01*
X60920476Y-104211523D02*
X60882380Y-104059142D01*
X60882380Y-104059142D02*
X60882380Y-103868666D01*
X60882380Y-103868666D02*
X60920476Y-103716285D01*
X60920476Y-103716285D02*
X60958571Y-103640095D01*
X60958571Y-103640095D02*
X60996666Y-103602000D01*
X60996666Y-103602000D02*
X61072857Y-103563904D01*
%TO.C,U3*%
X64963904Y-94329523D02*
X65611523Y-94329523D01*
X65611523Y-94329523D02*
X65687714Y-94291428D01*
X65687714Y-94291428D02*
X65725809Y-94253333D01*
X65725809Y-94253333D02*
X65763904Y-94177142D01*
X65763904Y-94177142D02*
X65763904Y-94024761D01*
X65763904Y-94024761D02*
X65725809Y-93948571D01*
X65725809Y-93948571D02*
X65687714Y-93910476D01*
X65687714Y-93910476D02*
X65611523Y-93872380D01*
X65611523Y-93872380D02*
X64963904Y-93872380D01*
X64963904Y-93567619D02*
X64963904Y-93072381D01*
X64963904Y-93072381D02*
X65268666Y-93339047D01*
X65268666Y-93339047D02*
X65268666Y-93224762D01*
X65268666Y-93224762D02*
X65306761Y-93148571D01*
X65306761Y-93148571D02*
X65344857Y-93110476D01*
X65344857Y-93110476D02*
X65421047Y-93072381D01*
X65421047Y-93072381D02*
X65611523Y-93072381D01*
X65611523Y-93072381D02*
X65687714Y-93110476D01*
X65687714Y-93110476D02*
X65725809Y-93148571D01*
X65725809Y-93148571D02*
X65763904Y-93224762D01*
X65763904Y-93224762D02*
X65763904Y-93453333D01*
X65763904Y-93453333D02*
X65725809Y-93529524D01*
X65725809Y-93529524D02*
X65687714Y-93567619D01*
%TO.C,D5*%
X85867024Y-129696404D02*
X85867024Y-128896404D01*
X85867024Y-128896404D02*
X86057500Y-128896404D01*
X86057500Y-128896404D02*
X86171786Y-128934500D01*
X86171786Y-128934500D02*
X86247976Y-129010690D01*
X86247976Y-129010690D02*
X86286071Y-129086880D01*
X86286071Y-129086880D02*
X86324167Y-129239261D01*
X86324167Y-129239261D02*
X86324167Y-129353547D01*
X86324167Y-129353547D02*
X86286071Y-129505928D01*
X86286071Y-129505928D02*
X86247976Y-129582119D01*
X86247976Y-129582119D02*
X86171786Y-129658309D01*
X86171786Y-129658309D02*
X86057500Y-129696404D01*
X86057500Y-129696404D02*
X85867024Y-129696404D01*
X87047976Y-128896404D02*
X86667024Y-128896404D01*
X86667024Y-128896404D02*
X86628928Y-129277357D01*
X86628928Y-129277357D02*
X86667024Y-129239261D01*
X86667024Y-129239261D02*
X86743214Y-129201166D01*
X86743214Y-129201166D02*
X86933690Y-129201166D01*
X86933690Y-129201166D02*
X87009881Y-129239261D01*
X87009881Y-129239261D02*
X87047976Y-129277357D01*
X87047976Y-129277357D02*
X87086071Y-129353547D01*
X87086071Y-129353547D02*
X87086071Y-129544023D01*
X87086071Y-129544023D02*
X87047976Y-129620214D01*
X87047976Y-129620214D02*
X87009881Y-129658309D01*
X87009881Y-129658309D02*
X86933690Y-129696404D01*
X86933690Y-129696404D02*
X86743214Y-129696404D01*
X86743214Y-129696404D02*
X86667024Y-129658309D01*
X86667024Y-129658309D02*
X86628928Y-129620214D01*
%TO.C,R6*%
X90441667Y-119493904D02*
X90175000Y-119112952D01*
X89984524Y-119493904D02*
X89984524Y-118693904D01*
X89984524Y-118693904D02*
X90289286Y-118693904D01*
X90289286Y-118693904D02*
X90365476Y-118732000D01*
X90365476Y-118732000D02*
X90403571Y-118770095D01*
X90403571Y-118770095D02*
X90441667Y-118846285D01*
X90441667Y-118846285D02*
X90441667Y-118960571D01*
X90441667Y-118960571D02*
X90403571Y-119036761D01*
X90403571Y-119036761D02*
X90365476Y-119074857D01*
X90365476Y-119074857D02*
X90289286Y-119112952D01*
X90289286Y-119112952D02*
X89984524Y-119112952D01*
X91127381Y-118693904D02*
X90975000Y-118693904D01*
X90975000Y-118693904D02*
X90898809Y-118732000D01*
X90898809Y-118732000D02*
X90860714Y-118770095D01*
X90860714Y-118770095D02*
X90784524Y-118884380D01*
X90784524Y-118884380D02*
X90746428Y-119036761D01*
X90746428Y-119036761D02*
X90746428Y-119341523D01*
X90746428Y-119341523D02*
X90784524Y-119417714D01*
X90784524Y-119417714D02*
X90822619Y-119455809D01*
X90822619Y-119455809D02*
X90898809Y-119493904D01*
X90898809Y-119493904D02*
X91051190Y-119493904D01*
X91051190Y-119493904D02*
X91127381Y-119455809D01*
X91127381Y-119455809D02*
X91165476Y-119417714D01*
X91165476Y-119417714D02*
X91203571Y-119341523D01*
X91203571Y-119341523D02*
X91203571Y-119151047D01*
X91203571Y-119151047D02*
X91165476Y-119074857D01*
X91165476Y-119074857D02*
X91127381Y-119036761D01*
X91127381Y-119036761D02*
X91051190Y-118998666D01*
X91051190Y-118998666D02*
X90898809Y-118998666D01*
X90898809Y-118998666D02*
X90822619Y-119036761D01*
X90822619Y-119036761D02*
X90784524Y-119074857D01*
X90784524Y-119074857D02*
X90746428Y-119151047D01*
%TO.C,R14*%
X80115714Y-95083904D02*
X79849047Y-94702952D01*
X79658571Y-95083904D02*
X79658571Y-94283904D01*
X79658571Y-94283904D02*
X79963333Y-94283904D01*
X79963333Y-94283904D02*
X80039523Y-94322000D01*
X80039523Y-94322000D02*
X80077618Y-94360095D01*
X80077618Y-94360095D02*
X80115714Y-94436285D01*
X80115714Y-94436285D02*
X80115714Y-94550571D01*
X80115714Y-94550571D02*
X80077618Y-94626761D01*
X80077618Y-94626761D02*
X80039523Y-94664857D01*
X80039523Y-94664857D02*
X79963333Y-94702952D01*
X79963333Y-94702952D02*
X79658571Y-94702952D01*
X80877618Y-95083904D02*
X80420475Y-95083904D01*
X80649047Y-95083904D02*
X80649047Y-94283904D01*
X80649047Y-94283904D02*
X80572856Y-94398190D01*
X80572856Y-94398190D02*
X80496666Y-94474380D01*
X80496666Y-94474380D02*
X80420475Y-94512476D01*
X81563333Y-94550571D02*
X81563333Y-95083904D01*
X81372857Y-94245809D02*
X81182380Y-94817238D01*
X81182380Y-94817238D02*
X81677619Y-94817238D01*
%TO.C,D1*%
X57539524Y-128873904D02*
X57539524Y-128073904D01*
X57539524Y-128073904D02*
X57730000Y-128073904D01*
X57730000Y-128073904D02*
X57844286Y-128112000D01*
X57844286Y-128112000D02*
X57920476Y-128188190D01*
X57920476Y-128188190D02*
X57958571Y-128264380D01*
X57958571Y-128264380D02*
X57996667Y-128416761D01*
X57996667Y-128416761D02*
X57996667Y-128531047D01*
X57996667Y-128531047D02*
X57958571Y-128683428D01*
X57958571Y-128683428D02*
X57920476Y-128759619D01*
X57920476Y-128759619D02*
X57844286Y-128835809D01*
X57844286Y-128835809D02*
X57730000Y-128873904D01*
X57730000Y-128873904D02*
X57539524Y-128873904D01*
X58758571Y-128873904D02*
X58301428Y-128873904D01*
X58530000Y-128873904D02*
X58530000Y-128073904D01*
X58530000Y-128073904D02*
X58453809Y-128188190D01*
X58453809Y-128188190D02*
X58377619Y-128264380D01*
X58377619Y-128264380D02*
X58301428Y-128302476D01*
D12*
%TO.C,R5*%
X80823476Y-121613333D02*
X80728238Y-121679999D01*
X80823476Y-121727618D02*
X80623476Y-121727618D01*
X80623476Y-121727618D02*
X80623476Y-121651428D01*
X80623476Y-121651428D02*
X80633000Y-121632380D01*
X80633000Y-121632380D02*
X80642523Y-121622857D01*
X80642523Y-121622857D02*
X80661571Y-121613333D01*
X80661571Y-121613333D02*
X80690142Y-121613333D01*
X80690142Y-121613333D02*
X80709190Y-121622857D01*
X80709190Y-121622857D02*
X80718714Y-121632380D01*
X80718714Y-121632380D02*
X80728238Y-121651428D01*
X80728238Y-121651428D02*
X80728238Y-121727618D01*
X80623476Y-121432380D02*
X80623476Y-121527618D01*
X80623476Y-121527618D02*
X80718714Y-121537142D01*
X80718714Y-121537142D02*
X80709190Y-121527618D01*
X80709190Y-121527618D02*
X80699666Y-121508571D01*
X80699666Y-121508571D02*
X80699666Y-121460952D01*
X80699666Y-121460952D02*
X80709190Y-121441904D01*
X80709190Y-121441904D02*
X80718714Y-121432380D01*
X80718714Y-121432380D02*
X80737761Y-121422857D01*
X80737761Y-121422857D02*
X80785380Y-121422857D01*
X80785380Y-121422857D02*
X80804428Y-121432380D01*
X80804428Y-121432380D02*
X80813952Y-121441904D01*
X80813952Y-121441904D02*
X80823476Y-121460952D01*
X80823476Y-121460952D02*
X80823476Y-121508571D01*
X80823476Y-121508571D02*
X80813952Y-121527618D01*
X80813952Y-121527618D02*
X80804428Y-121537142D01*
D10*
%TO.C,R13*%
X80105714Y-96883904D02*
X79839047Y-96502952D01*
X79648571Y-96883904D02*
X79648571Y-96083904D01*
X79648571Y-96083904D02*
X79953333Y-96083904D01*
X79953333Y-96083904D02*
X80029523Y-96122000D01*
X80029523Y-96122000D02*
X80067618Y-96160095D01*
X80067618Y-96160095D02*
X80105714Y-96236285D01*
X80105714Y-96236285D02*
X80105714Y-96350571D01*
X80105714Y-96350571D02*
X80067618Y-96426761D01*
X80067618Y-96426761D02*
X80029523Y-96464857D01*
X80029523Y-96464857D02*
X79953333Y-96502952D01*
X79953333Y-96502952D02*
X79648571Y-96502952D01*
X80867618Y-96883904D02*
X80410475Y-96883904D01*
X80639047Y-96883904D02*
X80639047Y-96083904D01*
X80639047Y-96083904D02*
X80562856Y-96198190D01*
X80562856Y-96198190D02*
X80486666Y-96274380D01*
X80486666Y-96274380D02*
X80410475Y-96312476D01*
X81134285Y-96083904D02*
X81629523Y-96083904D01*
X81629523Y-96083904D02*
X81362857Y-96388666D01*
X81362857Y-96388666D02*
X81477142Y-96388666D01*
X81477142Y-96388666D02*
X81553333Y-96426761D01*
X81553333Y-96426761D02*
X81591428Y-96464857D01*
X81591428Y-96464857D02*
X81629523Y-96541047D01*
X81629523Y-96541047D02*
X81629523Y-96731523D01*
X81629523Y-96731523D02*
X81591428Y-96807714D01*
X81591428Y-96807714D02*
X81553333Y-96845809D01*
X81553333Y-96845809D02*
X81477142Y-96883904D01*
X81477142Y-96883904D02*
X81248571Y-96883904D01*
X81248571Y-96883904D02*
X81172380Y-96845809D01*
X81172380Y-96845809D02*
X81134285Y-96807714D01*
%TO.C,C8*%
X60576667Y-102002714D02*
X60538571Y-102040809D01*
X60538571Y-102040809D02*
X60424286Y-102078904D01*
X60424286Y-102078904D02*
X60348095Y-102078904D01*
X60348095Y-102078904D02*
X60233809Y-102040809D01*
X60233809Y-102040809D02*
X60157619Y-101964619D01*
X60157619Y-101964619D02*
X60119524Y-101888428D01*
X60119524Y-101888428D02*
X60081428Y-101736047D01*
X60081428Y-101736047D02*
X60081428Y-101621761D01*
X60081428Y-101621761D02*
X60119524Y-101469380D01*
X60119524Y-101469380D02*
X60157619Y-101393190D01*
X60157619Y-101393190D02*
X60233809Y-101317000D01*
X60233809Y-101317000D02*
X60348095Y-101278904D01*
X60348095Y-101278904D02*
X60424286Y-101278904D01*
X60424286Y-101278904D02*
X60538571Y-101317000D01*
X60538571Y-101317000D02*
X60576667Y-101355095D01*
X61033809Y-101621761D02*
X60957619Y-101583666D01*
X60957619Y-101583666D02*
X60919524Y-101545571D01*
X60919524Y-101545571D02*
X60881428Y-101469380D01*
X60881428Y-101469380D02*
X60881428Y-101431285D01*
X60881428Y-101431285D02*
X60919524Y-101355095D01*
X60919524Y-101355095D02*
X60957619Y-101317000D01*
X60957619Y-101317000D02*
X61033809Y-101278904D01*
X61033809Y-101278904D02*
X61186190Y-101278904D01*
X61186190Y-101278904D02*
X61262381Y-101317000D01*
X61262381Y-101317000D02*
X61300476Y-101355095D01*
X61300476Y-101355095D02*
X61338571Y-101431285D01*
X61338571Y-101431285D02*
X61338571Y-101469380D01*
X61338571Y-101469380D02*
X61300476Y-101545571D01*
X61300476Y-101545571D02*
X61262381Y-101583666D01*
X61262381Y-101583666D02*
X61186190Y-101621761D01*
X61186190Y-101621761D02*
X61033809Y-101621761D01*
X61033809Y-101621761D02*
X60957619Y-101659857D01*
X60957619Y-101659857D02*
X60919524Y-101697952D01*
X60919524Y-101697952D02*
X60881428Y-101774142D01*
X60881428Y-101774142D02*
X60881428Y-101926523D01*
X60881428Y-101926523D02*
X60919524Y-102002714D01*
X60919524Y-102002714D02*
X60957619Y-102040809D01*
X60957619Y-102040809D02*
X61033809Y-102078904D01*
X61033809Y-102078904D02*
X61186190Y-102078904D01*
X61186190Y-102078904D02*
X61262381Y-102040809D01*
X61262381Y-102040809D02*
X61300476Y-102002714D01*
X61300476Y-102002714D02*
X61338571Y-101926523D01*
X61338571Y-101926523D02*
X61338571Y-101774142D01*
X61338571Y-101774142D02*
X61300476Y-101697952D01*
X61300476Y-101697952D02*
X61262381Y-101659857D01*
X61262381Y-101659857D02*
X61186190Y-101621761D01*
%TO.C,C5*%
X84946667Y-126247714D02*
X84908571Y-126285809D01*
X84908571Y-126285809D02*
X84794286Y-126323904D01*
X84794286Y-126323904D02*
X84718095Y-126323904D01*
X84718095Y-126323904D02*
X84603809Y-126285809D01*
X84603809Y-126285809D02*
X84527619Y-126209619D01*
X84527619Y-126209619D02*
X84489524Y-126133428D01*
X84489524Y-126133428D02*
X84451428Y-125981047D01*
X84451428Y-125981047D02*
X84451428Y-125866761D01*
X84451428Y-125866761D02*
X84489524Y-125714380D01*
X84489524Y-125714380D02*
X84527619Y-125638190D01*
X84527619Y-125638190D02*
X84603809Y-125562000D01*
X84603809Y-125562000D02*
X84718095Y-125523904D01*
X84718095Y-125523904D02*
X84794286Y-125523904D01*
X84794286Y-125523904D02*
X84908571Y-125562000D01*
X84908571Y-125562000D02*
X84946667Y-125600095D01*
X85670476Y-125523904D02*
X85289524Y-125523904D01*
X85289524Y-125523904D02*
X85251428Y-125904857D01*
X85251428Y-125904857D02*
X85289524Y-125866761D01*
X85289524Y-125866761D02*
X85365714Y-125828666D01*
X85365714Y-125828666D02*
X85556190Y-125828666D01*
X85556190Y-125828666D02*
X85632381Y-125866761D01*
X85632381Y-125866761D02*
X85670476Y-125904857D01*
X85670476Y-125904857D02*
X85708571Y-125981047D01*
X85708571Y-125981047D02*
X85708571Y-126171523D01*
X85708571Y-126171523D02*
X85670476Y-126247714D01*
X85670476Y-126247714D02*
X85632381Y-126285809D01*
X85632381Y-126285809D02*
X85556190Y-126323904D01*
X85556190Y-126323904D02*
X85365714Y-126323904D01*
X85365714Y-126323904D02*
X85289524Y-126285809D01*
X85289524Y-126285809D02*
X85251428Y-126247714D01*
%TO.C,U1*%
X78373904Y-114659523D02*
X79021523Y-114659523D01*
X79021523Y-114659523D02*
X79097714Y-114621428D01*
X79097714Y-114621428D02*
X79135809Y-114583333D01*
X79135809Y-114583333D02*
X79173904Y-114507142D01*
X79173904Y-114507142D02*
X79173904Y-114354761D01*
X79173904Y-114354761D02*
X79135809Y-114278571D01*
X79135809Y-114278571D02*
X79097714Y-114240476D01*
X79097714Y-114240476D02*
X79021523Y-114202380D01*
X79021523Y-114202380D02*
X78373904Y-114202380D01*
X79173904Y-113402381D02*
X79173904Y-113859524D01*
X79173904Y-113630952D02*
X78373904Y-113630952D01*
X78373904Y-113630952D02*
X78488190Y-113707143D01*
X78488190Y-113707143D02*
X78564380Y-113783333D01*
X78564380Y-113783333D02*
X78602476Y-113859524D01*
%TO.C,C7*%
X68586667Y-114957714D02*
X68548571Y-114995809D01*
X68548571Y-114995809D02*
X68434286Y-115033904D01*
X68434286Y-115033904D02*
X68358095Y-115033904D01*
X68358095Y-115033904D02*
X68243809Y-114995809D01*
X68243809Y-114995809D02*
X68167619Y-114919619D01*
X68167619Y-114919619D02*
X68129524Y-114843428D01*
X68129524Y-114843428D02*
X68091428Y-114691047D01*
X68091428Y-114691047D02*
X68091428Y-114576761D01*
X68091428Y-114576761D02*
X68129524Y-114424380D01*
X68129524Y-114424380D02*
X68167619Y-114348190D01*
X68167619Y-114348190D02*
X68243809Y-114272000D01*
X68243809Y-114272000D02*
X68358095Y-114233904D01*
X68358095Y-114233904D02*
X68434286Y-114233904D01*
X68434286Y-114233904D02*
X68548571Y-114272000D01*
X68548571Y-114272000D02*
X68586667Y-114310095D01*
X68853333Y-114233904D02*
X69386667Y-114233904D01*
X69386667Y-114233904D02*
X69043809Y-115033904D01*
%TO.C,R11*%
X80115714Y-98543904D02*
X79849047Y-98162952D01*
X79658571Y-98543904D02*
X79658571Y-97743904D01*
X79658571Y-97743904D02*
X79963333Y-97743904D01*
X79963333Y-97743904D02*
X80039523Y-97782000D01*
X80039523Y-97782000D02*
X80077618Y-97820095D01*
X80077618Y-97820095D02*
X80115714Y-97896285D01*
X80115714Y-97896285D02*
X80115714Y-98010571D01*
X80115714Y-98010571D02*
X80077618Y-98086761D01*
X80077618Y-98086761D02*
X80039523Y-98124857D01*
X80039523Y-98124857D02*
X79963333Y-98162952D01*
X79963333Y-98162952D02*
X79658571Y-98162952D01*
X80877618Y-98543904D02*
X80420475Y-98543904D01*
X80649047Y-98543904D02*
X80649047Y-97743904D01*
X80649047Y-97743904D02*
X80572856Y-97858190D01*
X80572856Y-97858190D02*
X80496666Y-97934380D01*
X80496666Y-97934380D02*
X80420475Y-97972476D01*
X81639523Y-98543904D02*
X81182380Y-98543904D01*
X81410952Y-98543904D02*
X81410952Y-97743904D01*
X81410952Y-97743904D02*
X81334761Y-97858190D01*
X81334761Y-97858190D02*
X81258571Y-97934380D01*
X81258571Y-97934380D02*
X81182380Y-97972476D01*
%TO.C,R3*%
X77113904Y-116523332D02*
X76732952Y-116789999D01*
X77113904Y-116980475D02*
X76313904Y-116980475D01*
X76313904Y-116980475D02*
X76313904Y-116675713D01*
X76313904Y-116675713D02*
X76352000Y-116599523D01*
X76352000Y-116599523D02*
X76390095Y-116561428D01*
X76390095Y-116561428D02*
X76466285Y-116523332D01*
X76466285Y-116523332D02*
X76580571Y-116523332D01*
X76580571Y-116523332D02*
X76656761Y-116561428D01*
X76656761Y-116561428D02*
X76694857Y-116599523D01*
X76694857Y-116599523D02*
X76732952Y-116675713D01*
X76732952Y-116675713D02*
X76732952Y-116980475D01*
X76313904Y-116256666D02*
X76313904Y-115761428D01*
X76313904Y-115761428D02*
X76618666Y-116028094D01*
X76618666Y-116028094D02*
X76618666Y-115913809D01*
X76618666Y-115913809D02*
X76656761Y-115837618D01*
X76656761Y-115837618D02*
X76694857Y-115799523D01*
X76694857Y-115799523D02*
X76771047Y-115761428D01*
X76771047Y-115761428D02*
X76961523Y-115761428D01*
X76961523Y-115761428D02*
X77037714Y-115799523D01*
X77037714Y-115799523D02*
X77075809Y-115837618D01*
X77075809Y-115837618D02*
X77113904Y-115913809D01*
X77113904Y-115913809D02*
X77113904Y-116142380D01*
X77113904Y-116142380D02*
X77075809Y-116218571D01*
X77075809Y-116218571D02*
X77037714Y-116256666D01*
%TO.C,C6*%
X86816667Y-126267714D02*
X86778571Y-126305809D01*
X86778571Y-126305809D02*
X86664286Y-126343904D01*
X86664286Y-126343904D02*
X86588095Y-126343904D01*
X86588095Y-126343904D02*
X86473809Y-126305809D01*
X86473809Y-126305809D02*
X86397619Y-126229619D01*
X86397619Y-126229619D02*
X86359524Y-126153428D01*
X86359524Y-126153428D02*
X86321428Y-126001047D01*
X86321428Y-126001047D02*
X86321428Y-125886761D01*
X86321428Y-125886761D02*
X86359524Y-125734380D01*
X86359524Y-125734380D02*
X86397619Y-125658190D01*
X86397619Y-125658190D02*
X86473809Y-125582000D01*
X86473809Y-125582000D02*
X86588095Y-125543904D01*
X86588095Y-125543904D02*
X86664286Y-125543904D01*
X86664286Y-125543904D02*
X86778571Y-125582000D01*
X86778571Y-125582000D02*
X86816667Y-125620095D01*
X87502381Y-125543904D02*
X87350000Y-125543904D01*
X87350000Y-125543904D02*
X87273809Y-125582000D01*
X87273809Y-125582000D02*
X87235714Y-125620095D01*
X87235714Y-125620095D02*
X87159524Y-125734380D01*
X87159524Y-125734380D02*
X87121428Y-125886761D01*
X87121428Y-125886761D02*
X87121428Y-126191523D01*
X87121428Y-126191523D02*
X87159524Y-126267714D01*
X87159524Y-126267714D02*
X87197619Y-126305809D01*
X87197619Y-126305809D02*
X87273809Y-126343904D01*
X87273809Y-126343904D02*
X87426190Y-126343904D01*
X87426190Y-126343904D02*
X87502381Y-126305809D01*
X87502381Y-126305809D02*
X87540476Y-126267714D01*
X87540476Y-126267714D02*
X87578571Y-126191523D01*
X87578571Y-126191523D02*
X87578571Y-126001047D01*
X87578571Y-126001047D02*
X87540476Y-125924857D01*
X87540476Y-125924857D02*
X87502381Y-125886761D01*
X87502381Y-125886761D02*
X87426190Y-125848666D01*
X87426190Y-125848666D02*
X87273809Y-125848666D01*
X87273809Y-125848666D02*
X87197619Y-125886761D01*
X87197619Y-125886761D02*
X87159524Y-125924857D01*
X87159524Y-125924857D02*
X87121428Y-126001047D01*
%TO.C,D2*%
X74543904Y-120900475D02*
X73743904Y-120900475D01*
X73743904Y-120900475D02*
X73743904Y-120709999D01*
X73743904Y-120709999D02*
X73782000Y-120595713D01*
X73782000Y-120595713D02*
X73858190Y-120519523D01*
X73858190Y-120519523D02*
X73934380Y-120481428D01*
X73934380Y-120481428D02*
X74086761Y-120443332D01*
X74086761Y-120443332D02*
X74201047Y-120443332D01*
X74201047Y-120443332D02*
X74353428Y-120481428D01*
X74353428Y-120481428D02*
X74429619Y-120519523D01*
X74429619Y-120519523D02*
X74505809Y-120595713D01*
X74505809Y-120595713D02*
X74543904Y-120709999D01*
X74543904Y-120709999D02*
X74543904Y-120900475D01*
X73820095Y-120138571D02*
X73782000Y-120100475D01*
X73782000Y-120100475D02*
X73743904Y-120024285D01*
X73743904Y-120024285D02*
X73743904Y-119833809D01*
X73743904Y-119833809D02*
X73782000Y-119757618D01*
X73782000Y-119757618D02*
X73820095Y-119719523D01*
X73820095Y-119719523D02*
X73896285Y-119681428D01*
X73896285Y-119681428D02*
X73972476Y-119681428D01*
X73972476Y-119681428D02*
X74086761Y-119719523D01*
X74086761Y-119719523D02*
X74543904Y-120176666D01*
X74543904Y-120176666D02*
X74543904Y-119681428D01*
%TO.C,L2*%
X65193904Y-116293333D02*
X65193904Y-116674285D01*
X65193904Y-116674285D02*
X64393904Y-116674285D01*
X64470095Y-116064762D02*
X64432000Y-116026666D01*
X64432000Y-116026666D02*
X64393904Y-115950476D01*
X64393904Y-115950476D02*
X64393904Y-115760000D01*
X64393904Y-115760000D02*
X64432000Y-115683809D01*
X64432000Y-115683809D02*
X64470095Y-115645714D01*
X64470095Y-115645714D02*
X64546285Y-115607619D01*
X64546285Y-115607619D02*
X64622476Y-115607619D01*
X64622476Y-115607619D02*
X64736761Y-115645714D01*
X64736761Y-115645714D02*
X65193904Y-116102857D01*
X65193904Y-116102857D02*
X65193904Y-115607619D01*
%TO.C,R2*%
X74608904Y-116523332D02*
X74227952Y-116789999D01*
X74608904Y-116980475D02*
X73808904Y-116980475D01*
X73808904Y-116980475D02*
X73808904Y-116675713D01*
X73808904Y-116675713D02*
X73847000Y-116599523D01*
X73847000Y-116599523D02*
X73885095Y-116561428D01*
X73885095Y-116561428D02*
X73961285Y-116523332D01*
X73961285Y-116523332D02*
X74075571Y-116523332D01*
X74075571Y-116523332D02*
X74151761Y-116561428D01*
X74151761Y-116561428D02*
X74189857Y-116599523D01*
X74189857Y-116599523D02*
X74227952Y-116675713D01*
X74227952Y-116675713D02*
X74227952Y-116980475D01*
X73885095Y-116218571D02*
X73847000Y-116180475D01*
X73847000Y-116180475D02*
X73808904Y-116104285D01*
X73808904Y-116104285D02*
X73808904Y-115913809D01*
X73808904Y-115913809D02*
X73847000Y-115837618D01*
X73847000Y-115837618D02*
X73885095Y-115799523D01*
X73885095Y-115799523D02*
X73961285Y-115761428D01*
X73961285Y-115761428D02*
X74037476Y-115761428D01*
X74037476Y-115761428D02*
X74151761Y-115799523D01*
X74151761Y-115799523D02*
X74608904Y-116256666D01*
X74608904Y-116256666D02*
X74608904Y-115761428D01*
%TO.C,D4*%
X58603904Y-116830475D02*
X57803904Y-116830475D01*
X57803904Y-116830475D02*
X57803904Y-116639999D01*
X57803904Y-116639999D02*
X57842000Y-116525713D01*
X57842000Y-116525713D02*
X57918190Y-116449523D01*
X57918190Y-116449523D02*
X57994380Y-116411428D01*
X57994380Y-116411428D02*
X58146761Y-116373332D01*
X58146761Y-116373332D02*
X58261047Y-116373332D01*
X58261047Y-116373332D02*
X58413428Y-116411428D01*
X58413428Y-116411428D02*
X58489619Y-116449523D01*
X58489619Y-116449523D02*
X58565809Y-116525713D01*
X58565809Y-116525713D02*
X58603904Y-116639999D01*
X58603904Y-116639999D02*
X58603904Y-116830475D01*
X58070571Y-115687618D02*
X58603904Y-115687618D01*
X57765809Y-115878094D02*
X58337238Y-116068571D01*
X58337238Y-116068571D02*
X58337238Y-115573332D01*
%TO.C,C1*%
X76465214Y-110020832D02*
X76503309Y-110058928D01*
X76503309Y-110058928D02*
X76541404Y-110173213D01*
X76541404Y-110173213D02*
X76541404Y-110249404D01*
X76541404Y-110249404D02*
X76503309Y-110363690D01*
X76503309Y-110363690D02*
X76427119Y-110439880D01*
X76427119Y-110439880D02*
X76350928Y-110477975D01*
X76350928Y-110477975D02*
X76198547Y-110516071D01*
X76198547Y-110516071D02*
X76084261Y-110516071D01*
X76084261Y-110516071D02*
X75931880Y-110477975D01*
X75931880Y-110477975D02*
X75855690Y-110439880D01*
X75855690Y-110439880D02*
X75779500Y-110363690D01*
X75779500Y-110363690D02*
X75741404Y-110249404D01*
X75741404Y-110249404D02*
X75741404Y-110173213D01*
X75741404Y-110173213D02*
X75779500Y-110058928D01*
X75779500Y-110058928D02*
X75817595Y-110020832D01*
X76541404Y-109258928D02*
X76541404Y-109716071D01*
X76541404Y-109487499D02*
X75741404Y-109487499D01*
X75741404Y-109487499D02*
X75855690Y-109563690D01*
X75855690Y-109563690D02*
X75931880Y-109639880D01*
X75931880Y-109639880D02*
X75969976Y-109716071D01*
D12*
%TO.C,R4*%
X83333476Y-121613333D02*
X83238238Y-121679999D01*
X83333476Y-121727618D02*
X83133476Y-121727618D01*
X83133476Y-121727618D02*
X83133476Y-121651428D01*
X83133476Y-121651428D02*
X83143000Y-121632380D01*
X83143000Y-121632380D02*
X83152523Y-121622857D01*
X83152523Y-121622857D02*
X83171571Y-121613333D01*
X83171571Y-121613333D02*
X83200142Y-121613333D01*
X83200142Y-121613333D02*
X83219190Y-121622857D01*
X83219190Y-121622857D02*
X83228714Y-121632380D01*
X83228714Y-121632380D02*
X83238238Y-121651428D01*
X83238238Y-121651428D02*
X83238238Y-121727618D01*
X83200142Y-121441904D02*
X83333476Y-121441904D01*
X83123952Y-121489523D02*
X83266809Y-121537142D01*
X83266809Y-121537142D02*
X83266809Y-121413333D01*
D10*
%TO.C,R12*%
X80065714Y-105143904D02*
X79799047Y-104762952D01*
X79608571Y-105143904D02*
X79608571Y-104343904D01*
X79608571Y-104343904D02*
X79913333Y-104343904D01*
X79913333Y-104343904D02*
X79989523Y-104382000D01*
X79989523Y-104382000D02*
X80027618Y-104420095D01*
X80027618Y-104420095D02*
X80065714Y-104496285D01*
X80065714Y-104496285D02*
X80065714Y-104610571D01*
X80065714Y-104610571D02*
X80027618Y-104686761D01*
X80027618Y-104686761D02*
X79989523Y-104724857D01*
X79989523Y-104724857D02*
X79913333Y-104762952D01*
X79913333Y-104762952D02*
X79608571Y-104762952D01*
X80827618Y-105143904D02*
X80370475Y-105143904D01*
X80599047Y-105143904D02*
X80599047Y-104343904D01*
X80599047Y-104343904D02*
X80522856Y-104458190D01*
X80522856Y-104458190D02*
X80446666Y-104534380D01*
X80446666Y-104534380D02*
X80370475Y-104572476D01*
X81132380Y-104420095D02*
X81170476Y-104382000D01*
X81170476Y-104382000D02*
X81246666Y-104343904D01*
X81246666Y-104343904D02*
X81437142Y-104343904D01*
X81437142Y-104343904D02*
X81513333Y-104382000D01*
X81513333Y-104382000D02*
X81551428Y-104420095D01*
X81551428Y-104420095D02*
X81589523Y-104496285D01*
X81589523Y-104496285D02*
X81589523Y-104572476D01*
X81589523Y-104572476D02*
X81551428Y-104686761D01*
X81551428Y-104686761D02*
X81094285Y-105143904D01*
X81094285Y-105143904D02*
X81589523Y-105143904D01*
%TO.C,D3*%
X79593904Y-120910475D02*
X78793904Y-120910475D01*
X78793904Y-120910475D02*
X78793904Y-120719999D01*
X78793904Y-120719999D02*
X78832000Y-120605713D01*
X78832000Y-120605713D02*
X78908190Y-120529523D01*
X78908190Y-120529523D02*
X78984380Y-120491428D01*
X78984380Y-120491428D02*
X79136761Y-120453332D01*
X79136761Y-120453332D02*
X79251047Y-120453332D01*
X79251047Y-120453332D02*
X79403428Y-120491428D01*
X79403428Y-120491428D02*
X79479619Y-120529523D01*
X79479619Y-120529523D02*
X79555809Y-120605713D01*
X79555809Y-120605713D02*
X79593904Y-120719999D01*
X79593904Y-120719999D02*
X79593904Y-120910475D01*
X78793904Y-120186666D02*
X78793904Y-119691428D01*
X78793904Y-119691428D02*
X79098666Y-119958094D01*
X79098666Y-119958094D02*
X79098666Y-119843809D01*
X79098666Y-119843809D02*
X79136761Y-119767618D01*
X79136761Y-119767618D02*
X79174857Y-119729523D01*
X79174857Y-119729523D02*
X79251047Y-119691428D01*
X79251047Y-119691428D02*
X79441523Y-119691428D01*
X79441523Y-119691428D02*
X79517714Y-119729523D01*
X79517714Y-119729523D02*
X79555809Y-119767618D01*
X79555809Y-119767618D02*
X79593904Y-119843809D01*
X79593904Y-119843809D02*
X79593904Y-120072380D01*
X79593904Y-120072380D02*
X79555809Y-120148571D01*
X79555809Y-120148571D02*
X79517714Y-120186666D01*
%TO.C,C2*%
X78152714Y-110020832D02*
X78190809Y-110058928D01*
X78190809Y-110058928D02*
X78228904Y-110173213D01*
X78228904Y-110173213D02*
X78228904Y-110249404D01*
X78228904Y-110249404D02*
X78190809Y-110363690D01*
X78190809Y-110363690D02*
X78114619Y-110439880D01*
X78114619Y-110439880D02*
X78038428Y-110477975D01*
X78038428Y-110477975D02*
X77886047Y-110516071D01*
X77886047Y-110516071D02*
X77771761Y-110516071D01*
X77771761Y-110516071D02*
X77619380Y-110477975D01*
X77619380Y-110477975D02*
X77543190Y-110439880D01*
X77543190Y-110439880D02*
X77467000Y-110363690D01*
X77467000Y-110363690D02*
X77428904Y-110249404D01*
X77428904Y-110249404D02*
X77428904Y-110173213D01*
X77428904Y-110173213D02*
X77467000Y-110058928D01*
X77467000Y-110058928D02*
X77505095Y-110020832D01*
X77505095Y-109716071D02*
X77467000Y-109677975D01*
X77467000Y-109677975D02*
X77428904Y-109601785D01*
X77428904Y-109601785D02*
X77428904Y-109411309D01*
X77428904Y-109411309D02*
X77467000Y-109335118D01*
X77467000Y-109335118D02*
X77505095Y-109297023D01*
X77505095Y-109297023D02*
X77581285Y-109258928D01*
X77581285Y-109258928D02*
X77657476Y-109258928D01*
X77657476Y-109258928D02*
X77771761Y-109297023D01*
X77771761Y-109297023D02*
X78228904Y-109754166D01*
X78228904Y-109754166D02*
X78228904Y-109258928D01*
%TO.C,C9*%
X60596667Y-99672714D02*
X60558571Y-99710809D01*
X60558571Y-99710809D02*
X60444286Y-99748904D01*
X60444286Y-99748904D02*
X60368095Y-99748904D01*
X60368095Y-99748904D02*
X60253809Y-99710809D01*
X60253809Y-99710809D02*
X60177619Y-99634619D01*
X60177619Y-99634619D02*
X60139524Y-99558428D01*
X60139524Y-99558428D02*
X60101428Y-99406047D01*
X60101428Y-99406047D02*
X60101428Y-99291761D01*
X60101428Y-99291761D02*
X60139524Y-99139380D01*
X60139524Y-99139380D02*
X60177619Y-99063190D01*
X60177619Y-99063190D02*
X60253809Y-98987000D01*
X60253809Y-98987000D02*
X60368095Y-98948904D01*
X60368095Y-98948904D02*
X60444286Y-98948904D01*
X60444286Y-98948904D02*
X60558571Y-98987000D01*
X60558571Y-98987000D02*
X60596667Y-99025095D01*
X60977619Y-99748904D02*
X61130000Y-99748904D01*
X61130000Y-99748904D02*
X61206190Y-99710809D01*
X61206190Y-99710809D02*
X61244286Y-99672714D01*
X61244286Y-99672714D02*
X61320476Y-99558428D01*
X61320476Y-99558428D02*
X61358571Y-99406047D01*
X61358571Y-99406047D02*
X61358571Y-99101285D01*
X61358571Y-99101285D02*
X61320476Y-99025095D01*
X61320476Y-99025095D02*
X61282381Y-98987000D01*
X61282381Y-98987000D02*
X61206190Y-98948904D01*
X61206190Y-98948904D02*
X61053809Y-98948904D01*
X61053809Y-98948904D02*
X60977619Y-98987000D01*
X60977619Y-98987000D02*
X60939524Y-99025095D01*
X60939524Y-99025095D02*
X60901428Y-99101285D01*
X60901428Y-99101285D02*
X60901428Y-99291761D01*
X60901428Y-99291761D02*
X60939524Y-99367952D01*
X60939524Y-99367952D02*
X60977619Y-99406047D01*
X60977619Y-99406047D02*
X61053809Y-99444142D01*
X61053809Y-99444142D02*
X61206190Y-99444142D01*
X61206190Y-99444142D02*
X61282381Y-99406047D01*
X61282381Y-99406047D02*
X61320476Y-99367952D01*
X61320476Y-99367952D02*
X61358571Y-99291761D01*
%TO.C,D6*%
X90014524Y-117243904D02*
X90014524Y-116443904D01*
X90014524Y-116443904D02*
X90205000Y-116443904D01*
X90205000Y-116443904D02*
X90319286Y-116482000D01*
X90319286Y-116482000D02*
X90395476Y-116558190D01*
X90395476Y-116558190D02*
X90433571Y-116634380D01*
X90433571Y-116634380D02*
X90471667Y-116786761D01*
X90471667Y-116786761D02*
X90471667Y-116901047D01*
X90471667Y-116901047D02*
X90433571Y-117053428D01*
X90433571Y-117053428D02*
X90395476Y-117129619D01*
X90395476Y-117129619D02*
X90319286Y-117205809D01*
X90319286Y-117205809D02*
X90205000Y-117243904D01*
X90205000Y-117243904D02*
X90014524Y-117243904D01*
X91157381Y-116443904D02*
X91005000Y-116443904D01*
X91005000Y-116443904D02*
X90928809Y-116482000D01*
X90928809Y-116482000D02*
X90890714Y-116520095D01*
X90890714Y-116520095D02*
X90814524Y-116634380D01*
X90814524Y-116634380D02*
X90776428Y-116786761D01*
X90776428Y-116786761D02*
X90776428Y-117091523D01*
X90776428Y-117091523D02*
X90814524Y-117167714D01*
X90814524Y-117167714D02*
X90852619Y-117205809D01*
X90852619Y-117205809D02*
X90928809Y-117243904D01*
X90928809Y-117243904D02*
X91081190Y-117243904D01*
X91081190Y-117243904D02*
X91157381Y-117205809D01*
X91157381Y-117205809D02*
X91195476Y-117167714D01*
X91195476Y-117167714D02*
X91233571Y-117091523D01*
X91233571Y-117091523D02*
X91233571Y-116901047D01*
X91233571Y-116901047D02*
X91195476Y-116824857D01*
X91195476Y-116824857D02*
X91157381Y-116786761D01*
X91157381Y-116786761D02*
X91081190Y-116748666D01*
X91081190Y-116748666D02*
X90928809Y-116748666D01*
X90928809Y-116748666D02*
X90852619Y-116786761D01*
X90852619Y-116786761D02*
X90814524Y-116824857D01*
X90814524Y-116824857D02*
X90776428Y-116901047D01*
%TO.C,D8*%
X67853904Y-110267975D02*
X67053904Y-110267975D01*
X67053904Y-110267975D02*
X67053904Y-110077499D01*
X67053904Y-110077499D02*
X67092000Y-109963213D01*
X67092000Y-109963213D02*
X67168190Y-109887023D01*
X67168190Y-109887023D02*
X67244380Y-109848928D01*
X67244380Y-109848928D02*
X67396761Y-109810832D01*
X67396761Y-109810832D02*
X67511047Y-109810832D01*
X67511047Y-109810832D02*
X67663428Y-109848928D01*
X67663428Y-109848928D02*
X67739619Y-109887023D01*
X67739619Y-109887023D02*
X67815809Y-109963213D01*
X67815809Y-109963213D02*
X67853904Y-110077499D01*
X67853904Y-110077499D02*
X67853904Y-110267975D01*
X67396761Y-109353690D02*
X67358666Y-109429880D01*
X67358666Y-109429880D02*
X67320571Y-109467975D01*
X67320571Y-109467975D02*
X67244380Y-109506071D01*
X67244380Y-109506071D02*
X67206285Y-109506071D01*
X67206285Y-109506071D02*
X67130095Y-109467975D01*
X67130095Y-109467975D02*
X67092000Y-109429880D01*
X67092000Y-109429880D02*
X67053904Y-109353690D01*
X67053904Y-109353690D02*
X67053904Y-109201309D01*
X67053904Y-109201309D02*
X67092000Y-109125118D01*
X67092000Y-109125118D02*
X67130095Y-109087023D01*
X67130095Y-109087023D02*
X67206285Y-109048928D01*
X67206285Y-109048928D02*
X67244380Y-109048928D01*
X67244380Y-109048928D02*
X67320571Y-109087023D01*
X67320571Y-109087023D02*
X67358666Y-109125118D01*
X67358666Y-109125118D02*
X67396761Y-109201309D01*
X67396761Y-109201309D02*
X67396761Y-109353690D01*
X67396761Y-109353690D02*
X67434857Y-109429880D01*
X67434857Y-109429880D02*
X67472952Y-109467975D01*
X67472952Y-109467975D02*
X67549142Y-109506071D01*
X67549142Y-109506071D02*
X67701523Y-109506071D01*
X67701523Y-109506071D02*
X67777714Y-109467975D01*
X67777714Y-109467975D02*
X67815809Y-109429880D01*
X67815809Y-109429880D02*
X67853904Y-109353690D01*
X67853904Y-109353690D02*
X67853904Y-109201309D01*
X67853904Y-109201309D02*
X67815809Y-109125118D01*
X67815809Y-109125118D02*
X67777714Y-109087023D01*
X67777714Y-109087023D02*
X67701523Y-109048928D01*
X67701523Y-109048928D02*
X67549142Y-109048928D01*
X67549142Y-109048928D02*
X67472952Y-109087023D01*
X67472952Y-109087023D02*
X67434857Y-109125118D01*
X67434857Y-109125118D02*
X67396761Y-109201309D01*
%TO.C,J1*%
X72933333Y-125443904D02*
X72933333Y-126015333D01*
X72933333Y-126015333D02*
X72895238Y-126129619D01*
X72895238Y-126129619D02*
X72819047Y-126205809D01*
X72819047Y-126205809D02*
X72704762Y-126243904D01*
X72704762Y-126243904D02*
X72628571Y-126243904D01*
X73733333Y-126243904D02*
X73276190Y-126243904D01*
X73504762Y-126243904D02*
X73504762Y-125443904D01*
X73504762Y-125443904D02*
X73428571Y-125558190D01*
X73428571Y-125558190D02*
X73352381Y-125634380D01*
X73352381Y-125634380D02*
X73276190Y-125672476D01*
%TO.C,C10*%
X59815714Y-97377714D02*
X59777618Y-97415809D01*
X59777618Y-97415809D02*
X59663333Y-97453904D01*
X59663333Y-97453904D02*
X59587142Y-97453904D01*
X59587142Y-97453904D02*
X59472856Y-97415809D01*
X59472856Y-97415809D02*
X59396666Y-97339619D01*
X59396666Y-97339619D02*
X59358571Y-97263428D01*
X59358571Y-97263428D02*
X59320475Y-97111047D01*
X59320475Y-97111047D02*
X59320475Y-96996761D01*
X59320475Y-96996761D02*
X59358571Y-96844380D01*
X59358571Y-96844380D02*
X59396666Y-96768190D01*
X59396666Y-96768190D02*
X59472856Y-96692000D01*
X59472856Y-96692000D02*
X59587142Y-96653904D01*
X59587142Y-96653904D02*
X59663333Y-96653904D01*
X59663333Y-96653904D02*
X59777618Y-96692000D01*
X59777618Y-96692000D02*
X59815714Y-96730095D01*
X60577618Y-97453904D02*
X60120475Y-97453904D01*
X60349047Y-97453904D02*
X60349047Y-96653904D01*
X60349047Y-96653904D02*
X60272856Y-96768190D01*
X60272856Y-96768190D02*
X60196666Y-96844380D01*
X60196666Y-96844380D02*
X60120475Y-96882476D01*
X61072857Y-96653904D02*
X61149047Y-96653904D01*
X61149047Y-96653904D02*
X61225238Y-96692000D01*
X61225238Y-96692000D02*
X61263333Y-96730095D01*
X61263333Y-96730095D02*
X61301428Y-96806285D01*
X61301428Y-96806285D02*
X61339523Y-96958666D01*
X61339523Y-96958666D02*
X61339523Y-97149142D01*
X61339523Y-97149142D02*
X61301428Y-97301523D01*
X61301428Y-97301523D02*
X61263333Y-97377714D01*
X61263333Y-97377714D02*
X61225238Y-97415809D01*
X61225238Y-97415809D02*
X61149047Y-97453904D01*
X61149047Y-97453904D02*
X61072857Y-97453904D01*
X61072857Y-97453904D02*
X60996666Y-97415809D01*
X60996666Y-97415809D02*
X60958571Y-97377714D01*
X60958571Y-97377714D02*
X60920476Y-97301523D01*
X60920476Y-97301523D02*
X60882380Y-97149142D01*
X60882380Y-97149142D02*
X60882380Y-96958666D01*
X60882380Y-96958666D02*
X60920476Y-96806285D01*
X60920476Y-96806285D02*
X60958571Y-96730095D01*
X60958571Y-96730095D02*
X60996666Y-96692000D01*
X60996666Y-96692000D02*
X61072857Y-96653904D01*
%TO.C,R1*%
X86743904Y-120808332D02*
X86362952Y-121074999D01*
X86743904Y-121265475D02*
X85943904Y-121265475D01*
X85943904Y-121265475D02*
X85943904Y-120960713D01*
X85943904Y-120960713D02*
X85982000Y-120884523D01*
X85982000Y-120884523D02*
X86020095Y-120846428D01*
X86020095Y-120846428D02*
X86096285Y-120808332D01*
X86096285Y-120808332D02*
X86210571Y-120808332D01*
X86210571Y-120808332D02*
X86286761Y-120846428D01*
X86286761Y-120846428D02*
X86324857Y-120884523D01*
X86324857Y-120884523D02*
X86362952Y-120960713D01*
X86362952Y-120960713D02*
X86362952Y-121265475D01*
X86743904Y-120046428D02*
X86743904Y-120503571D01*
X86743904Y-120274999D02*
X85943904Y-120274999D01*
X85943904Y-120274999D02*
X86058190Y-120351190D01*
X86058190Y-120351190D02*
X86134380Y-120427380D01*
X86134380Y-120427380D02*
X86172476Y-120503571D01*
%TO.C,R7*%
X90431667Y-112713904D02*
X90165000Y-112332952D01*
X89974524Y-112713904D02*
X89974524Y-111913904D01*
X89974524Y-111913904D02*
X90279286Y-111913904D01*
X90279286Y-111913904D02*
X90355476Y-111952000D01*
X90355476Y-111952000D02*
X90393571Y-111990095D01*
X90393571Y-111990095D02*
X90431667Y-112066285D01*
X90431667Y-112066285D02*
X90431667Y-112180571D01*
X90431667Y-112180571D02*
X90393571Y-112256761D01*
X90393571Y-112256761D02*
X90355476Y-112294857D01*
X90355476Y-112294857D02*
X90279286Y-112332952D01*
X90279286Y-112332952D02*
X89974524Y-112332952D01*
X90698333Y-111913904D02*
X91231667Y-111913904D01*
X91231667Y-111913904D02*
X90888809Y-112713904D01*
%TO.C,R17*%
X73123904Y-110104285D02*
X72742952Y-110370952D01*
X73123904Y-110561428D02*
X72323904Y-110561428D01*
X72323904Y-110561428D02*
X72323904Y-110256666D01*
X72323904Y-110256666D02*
X72362000Y-110180476D01*
X72362000Y-110180476D02*
X72400095Y-110142381D01*
X72400095Y-110142381D02*
X72476285Y-110104285D01*
X72476285Y-110104285D02*
X72590571Y-110104285D01*
X72590571Y-110104285D02*
X72666761Y-110142381D01*
X72666761Y-110142381D02*
X72704857Y-110180476D01*
X72704857Y-110180476D02*
X72742952Y-110256666D01*
X72742952Y-110256666D02*
X72742952Y-110561428D01*
X73123904Y-109342381D02*
X73123904Y-109799524D01*
X73123904Y-109570952D02*
X72323904Y-109570952D01*
X72323904Y-109570952D02*
X72438190Y-109647143D01*
X72438190Y-109647143D02*
X72514380Y-109723333D01*
X72514380Y-109723333D02*
X72552476Y-109799524D01*
X72323904Y-109075714D02*
X72323904Y-108542380D01*
X72323904Y-108542380D02*
X73123904Y-108885238D01*
%TO.C,R15*%
X74913904Y-110091785D02*
X74532952Y-110358452D01*
X74913904Y-110548928D02*
X74113904Y-110548928D01*
X74113904Y-110548928D02*
X74113904Y-110244166D01*
X74113904Y-110244166D02*
X74152000Y-110167976D01*
X74152000Y-110167976D02*
X74190095Y-110129881D01*
X74190095Y-110129881D02*
X74266285Y-110091785D01*
X74266285Y-110091785D02*
X74380571Y-110091785D01*
X74380571Y-110091785D02*
X74456761Y-110129881D01*
X74456761Y-110129881D02*
X74494857Y-110167976D01*
X74494857Y-110167976D02*
X74532952Y-110244166D01*
X74532952Y-110244166D02*
X74532952Y-110548928D01*
X74913904Y-109329881D02*
X74913904Y-109787024D01*
X74913904Y-109558452D02*
X74113904Y-109558452D01*
X74113904Y-109558452D02*
X74228190Y-109634643D01*
X74228190Y-109634643D02*
X74304380Y-109710833D01*
X74304380Y-109710833D02*
X74342476Y-109787024D01*
X74113904Y-108606071D02*
X74113904Y-108987023D01*
X74113904Y-108987023D02*
X74494857Y-109025119D01*
X74494857Y-109025119D02*
X74456761Y-108987023D01*
X74456761Y-108987023D02*
X74418666Y-108910833D01*
X74418666Y-108910833D02*
X74418666Y-108720357D01*
X74418666Y-108720357D02*
X74456761Y-108644166D01*
X74456761Y-108644166D02*
X74494857Y-108606071D01*
X74494857Y-108606071D02*
X74571047Y-108567976D01*
X74571047Y-108567976D02*
X74761523Y-108567976D01*
X74761523Y-108567976D02*
X74837714Y-108606071D01*
X74837714Y-108606071D02*
X74875809Y-108644166D01*
X74875809Y-108644166D02*
X74913904Y-108720357D01*
X74913904Y-108720357D02*
X74913904Y-108910833D01*
X74913904Y-108910833D02*
X74875809Y-108987023D01*
X74875809Y-108987023D02*
X74837714Y-109025119D01*
%TO.C,L1*%
X81876666Y-119073904D02*
X81495714Y-119073904D01*
X81495714Y-119073904D02*
X81495714Y-118273904D01*
X82562380Y-119073904D02*
X82105237Y-119073904D01*
X82333809Y-119073904D02*
X82333809Y-118273904D01*
X82333809Y-118273904D02*
X82257618Y-118388190D01*
X82257618Y-118388190D02*
X82181428Y-118464380D01*
X82181428Y-118464380D02*
X82105237Y-118502476D01*
%TO.C,R16*%
X71433904Y-110114285D02*
X71052952Y-110380952D01*
X71433904Y-110571428D02*
X70633904Y-110571428D01*
X70633904Y-110571428D02*
X70633904Y-110266666D01*
X70633904Y-110266666D02*
X70672000Y-110190476D01*
X70672000Y-110190476D02*
X70710095Y-110152381D01*
X70710095Y-110152381D02*
X70786285Y-110114285D01*
X70786285Y-110114285D02*
X70900571Y-110114285D01*
X70900571Y-110114285D02*
X70976761Y-110152381D01*
X70976761Y-110152381D02*
X71014857Y-110190476D01*
X71014857Y-110190476D02*
X71052952Y-110266666D01*
X71052952Y-110266666D02*
X71052952Y-110571428D01*
X71433904Y-109352381D02*
X71433904Y-109809524D01*
X71433904Y-109580952D02*
X70633904Y-109580952D01*
X70633904Y-109580952D02*
X70748190Y-109657143D01*
X70748190Y-109657143D02*
X70824380Y-109733333D01*
X70824380Y-109733333D02*
X70862476Y-109809524D01*
X70633904Y-108666666D02*
X70633904Y-108819047D01*
X70633904Y-108819047D02*
X70672000Y-108895238D01*
X70672000Y-108895238D02*
X70710095Y-108933333D01*
X70710095Y-108933333D02*
X70824380Y-109009523D01*
X70824380Y-109009523D02*
X70976761Y-109047619D01*
X70976761Y-109047619D02*
X71281523Y-109047619D01*
X71281523Y-109047619D02*
X71357714Y-109009523D01*
X71357714Y-109009523D02*
X71395809Y-108971428D01*
X71395809Y-108971428D02*
X71433904Y-108895238D01*
X71433904Y-108895238D02*
X71433904Y-108742857D01*
X71433904Y-108742857D02*
X71395809Y-108666666D01*
X71395809Y-108666666D02*
X71357714Y-108628571D01*
X71357714Y-108628571D02*
X71281523Y-108590476D01*
X71281523Y-108590476D02*
X71091047Y-108590476D01*
X71091047Y-108590476D02*
X71014857Y-108628571D01*
X71014857Y-108628571D02*
X70976761Y-108666666D01*
X70976761Y-108666666D02*
X70938666Y-108742857D01*
X70938666Y-108742857D02*
X70938666Y-108895238D01*
X70938666Y-108895238D02*
X70976761Y-108971428D01*
X70976761Y-108971428D02*
X71014857Y-109009523D01*
X71014857Y-109009523D02*
X71091047Y-109047619D01*
%TO.C,C3*%
X68726667Y-118357714D02*
X68688571Y-118395809D01*
X68688571Y-118395809D02*
X68574286Y-118433904D01*
X68574286Y-118433904D02*
X68498095Y-118433904D01*
X68498095Y-118433904D02*
X68383809Y-118395809D01*
X68383809Y-118395809D02*
X68307619Y-118319619D01*
X68307619Y-118319619D02*
X68269524Y-118243428D01*
X68269524Y-118243428D02*
X68231428Y-118091047D01*
X68231428Y-118091047D02*
X68231428Y-117976761D01*
X68231428Y-117976761D02*
X68269524Y-117824380D01*
X68269524Y-117824380D02*
X68307619Y-117748190D01*
X68307619Y-117748190D02*
X68383809Y-117672000D01*
X68383809Y-117672000D02*
X68498095Y-117633904D01*
X68498095Y-117633904D02*
X68574286Y-117633904D01*
X68574286Y-117633904D02*
X68688571Y-117672000D01*
X68688571Y-117672000D02*
X68726667Y-117710095D01*
X68993333Y-117633904D02*
X69488571Y-117633904D01*
X69488571Y-117633904D02*
X69221905Y-117938666D01*
X69221905Y-117938666D02*
X69336190Y-117938666D01*
X69336190Y-117938666D02*
X69412381Y-117976761D01*
X69412381Y-117976761D02*
X69450476Y-118014857D01*
X69450476Y-118014857D02*
X69488571Y-118091047D01*
X69488571Y-118091047D02*
X69488571Y-118281523D01*
X69488571Y-118281523D02*
X69450476Y-118357714D01*
X69450476Y-118357714D02*
X69412381Y-118395809D01*
X69412381Y-118395809D02*
X69336190Y-118433904D01*
X69336190Y-118433904D02*
X69107619Y-118433904D01*
X69107619Y-118433904D02*
X69031428Y-118395809D01*
X69031428Y-118395809D02*
X68993333Y-118357714D01*
%TO.C,C4*%
X62296667Y-126107714D02*
X62258571Y-126145809D01*
X62258571Y-126145809D02*
X62144286Y-126183904D01*
X62144286Y-126183904D02*
X62068095Y-126183904D01*
X62068095Y-126183904D02*
X61953809Y-126145809D01*
X61953809Y-126145809D02*
X61877619Y-126069619D01*
X61877619Y-126069619D02*
X61839524Y-125993428D01*
X61839524Y-125993428D02*
X61801428Y-125841047D01*
X61801428Y-125841047D02*
X61801428Y-125726761D01*
X61801428Y-125726761D02*
X61839524Y-125574380D01*
X61839524Y-125574380D02*
X61877619Y-125498190D01*
X61877619Y-125498190D02*
X61953809Y-125422000D01*
X61953809Y-125422000D02*
X62068095Y-125383904D01*
X62068095Y-125383904D02*
X62144286Y-125383904D01*
X62144286Y-125383904D02*
X62258571Y-125422000D01*
X62258571Y-125422000D02*
X62296667Y-125460095D01*
X62982381Y-125650571D02*
X62982381Y-126183904D01*
X62791905Y-125345809D02*
X62601428Y-125917238D01*
X62601428Y-125917238D02*
X63096667Y-125917238D01*
%TO.C,F1*%
X60993333Y-131004857D02*
X60726667Y-131004857D01*
X60726667Y-131423904D02*
X60726667Y-130623904D01*
X60726667Y-130623904D02*
X61107619Y-130623904D01*
X61831428Y-131423904D02*
X61374285Y-131423904D01*
X61602857Y-131423904D02*
X61602857Y-130623904D01*
X61602857Y-130623904D02*
X61526666Y-130738190D01*
X61526666Y-130738190D02*
X61450476Y-130814380D01*
X61450476Y-130814380D02*
X61374285Y-130852476D01*
%TO.C,R9*%
X69671404Y-110100832D02*
X69290452Y-110367499D01*
X69671404Y-110557975D02*
X68871404Y-110557975D01*
X68871404Y-110557975D02*
X68871404Y-110253213D01*
X68871404Y-110253213D02*
X68909500Y-110177023D01*
X68909500Y-110177023D02*
X68947595Y-110138928D01*
X68947595Y-110138928D02*
X69023785Y-110100832D01*
X69023785Y-110100832D02*
X69138071Y-110100832D01*
X69138071Y-110100832D02*
X69214261Y-110138928D01*
X69214261Y-110138928D02*
X69252357Y-110177023D01*
X69252357Y-110177023D02*
X69290452Y-110253213D01*
X69290452Y-110253213D02*
X69290452Y-110557975D01*
X69671404Y-109719880D02*
X69671404Y-109567499D01*
X69671404Y-109567499D02*
X69633309Y-109491309D01*
X69633309Y-109491309D02*
X69595214Y-109453213D01*
X69595214Y-109453213D02*
X69480928Y-109377023D01*
X69480928Y-109377023D02*
X69328547Y-109338928D01*
X69328547Y-109338928D02*
X69023785Y-109338928D01*
X69023785Y-109338928D02*
X68947595Y-109377023D01*
X68947595Y-109377023D02*
X68909500Y-109415118D01*
X68909500Y-109415118D02*
X68871404Y-109491309D01*
X68871404Y-109491309D02*
X68871404Y-109643690D01*
X68871404Y-109643690D02*
X68909500Y-109719880D01*
X68909500Y-109719880D02*
X68947595Y-109757975D01*
X68947595Y-109757975D02*
X69023785Y-109796071D01*
X69023785Y-109796071D02*
X69214261Y-109796071D01*
X69214261Y-109796071D02*
X69290452Y-109757975D01*
X69290452Y-109757975D02*
X69328547Y-109719880D01*
X69328547Y-109719880D02*
X69366642Y-109643690D01*
X69366642Y-109643690D02*
X69366642Y-109491309D01*
X69366642Y-109491309D02*
X69328547Y-109415118D01*
X69328547Y-109415118D02*
X69290452Y-109377023D01*
X69290452Y-109377023D02*
X69214261Y-109338928D01*
%TO.C,D7*%
X90014524Y-114961682D02*
X90014524Y-114161682D01*
X90014524Y-114161682D02*
X90205000Y-114161682D01*
X90205000Y-114161682D02*
X90319286Y-114199778D01*
X90319286Y-114199778D02*
X90395476Y-114275968D01*
X90395476Y-114275968D02*
X90433571Y-114352158D01*
X90433571Y-114352158D02*
X90471667Y-114504539D01*
X90471667Y-114504539D02*
X90471667Y-114618825D01*
X90471667Y-114618825D02*
X90433571Y-114771206D01*
X90433571Y-114771206D02*
X90395476Y-114847397D01*
X90395476Y-114847397D02*
X90319286Y-114923587D01*
X90319286Y-114923587D02*
X90205000Y-114961682D01*
X90205000Y-114961682D02*
X90014524Y-114961682D01*
X90738333Y-114161682D02*
X91271667Y-114161682D01*
X91271667Y-114161682D02*
X90928809Y-114961682D01*
%TO.C,R8*%
X89626667Y-122003904D02*
X89360000Y-121622952D01*
X89169524Y-122003904D02*
X89169524Y-121203904D01*
X89169524Y-121203904D02*
X89474286Y-121203904D01*
X89474286Y-121203904D02*
X89550476Y-121242000D01*
X89550476Y-121242000D02*
X89588571Y-121280095D01*
X89588571Y-121280095D02*
X89626667Y-121356285D01*
X89626667Y-121356285D02*
X89626667Y-121470571D01*
X89626667Y-121470571D02*
X89588571Y-121546761D01*
X89588571Y-121546761D02*
X89550476Y-121584857D01*
X89550476Y-121584857D02*
X89474286Y-121622952D01*
X89474286Y-121622952D02*
X89169524Y-121622952D01*
X90083809Y-121546761D02*
X90007619Y-121508666D01*
X90007619Y-121508666D02*
X89969524Y-121470571D01*
X89969524Y-121470571D02*
X89931428Y-121394380D01*
X89931428Y-121394380D02*
X89931428Y-121356285D01*
X89931428Y-121356285D02*
X89969524Y-121280095D01*
X89969524Y-121280095D02*
X90007619Y-121242000D01*
X90007619Y-121242000D02*
X90083809Y-121203904D01*
X90083809Y-121203904D02*
X90236190Y-121203904D01*
X90236190Y-121203904D02*
X90312381Y-121242000D01*
X90312381Y-121242000D02*
X90350476Y-121280095D01*
X90350476Y-121280095D02*
X90388571Y-121356285D01*
X90388571Y-121356285D02*
X90388571Y-121394380D01*
X90388571Y-121394380D02*
X90350476Y-121470571D01*
X90350476Y-121470571D02*
X90312381Y-121508666D01*
X90312381Y-121508666D02*
X90236190Y-121546761D01*
X90236190Y-121546761D02*
X90083809Y-121546761D01*
X90083809Y-121546761D02*
X90007619Y-121584857D01*
X90007619Y-121584857D02*
X89969524Y-121622952D01*
X89969524Y-121622952D02*
X89931428Y-121699142D01*
X89931428Y-121699142D02*
X89931428Y-121851523D01*
X89931428Y-121851523D02*
X89969524Y-121927714D01*
X89969524Y-121927714D02*
X90007619Y-121965809D01*
X90007619Y-121965809D02*
X90083809Y-122003904D01*
X90083809Y-122003904D02*
X90236190Y-122003904D01*
X90236190Y-122003904D02*
X90312381Y-121965809D01*
X90312381Y-121965809D02*
X90350476Y-121927714D01*
X90350476Y-121927714D02*
X90388571Y-121851523D01*
X90388571Y-121851523D02*
X90388571Y-121699142D01*
X90388571Y-121699142D02*
X90350476Y-121622952D01*
X90350476Y-121622952D02*
X90312381Y-121584857D01*
X90312381Y-121584857D02*
X90236190Y-121546761D01*
%TO.C,Q1*%
X80493809Y-101110095D02*
X80417619Y-101072000D01*
X80417619Y-101072000D02*
X80341428Y-100995809D01*
X80341428Y-100995809D02*
X80227142Y-100881523D01*
X80227142Y-100881523D02*
X80150952Y-100843428D01*
X80150952Y-100843428D02*
X80074761Y-100843428D01*
X80112857Y-101033904D02*
X80036666Y-100995809D01*
X80036666Y-100995809D02*
X79960476Y-100919619D01*
X79960476Y-100919619D02*
X79922380Y-100767238D01*
X79922380Y-100767238D02*
X79922380Y-100500571D01*
X79922380Y-100500571D02*
X79960476Y-100348190D01*
X79960476Y-100348190D02*
X80036666Y-100272000D01*
X80036666Y-100272000D02*
X80112857Y-100233904D01*
X80112857Y-100233904D02*
X80265238Y-100233904D01*
X80265238Y-100233904D02*
X80341428Y-100272000D01*
X80341428Y-100272000D02*
X80417619Y-100348190D01*
X80417619Y-100348190D02*
X80455714Y-100500571D01*
X80455714Y-100500571D02*
X80455714Y-100767238D01*
X80455714Y-100767238D02*
X80417619Y-100919619D01*
X80417619Y-100919619D02*
X80341428Y-100995809D01*
X80341428Y-100995809D02*
X80265238Y-101033904D01*
X80265238Y-101033904D02*
X80112857Y-101033904D01*
X81217618Y-101033904D02*
X80760475Y-101033904D01*
X80989047Y-101033904D02*
X80989047Y-100233904D01*
X80989047Y-100233904D02*
X80912856Y-100348190D01*
X80912856Y-100348190D02*
X80836666Y-100424380D01*
X80836666Y-100424380D02*
X80760475Y-100462476D01*
%TO.C,U2*%
X59200476Y-125113904D02*
X59200476Y-125761523D01*
X59200476Y-125761523D02*
X59238571Y-125837714D01*
X59238571Y-125837714D02*
X59276666Y-125875809D01*
X59276666Y-125875809D02*
X59352857Y-125913904D01*
X59352857Y-125913904D02*
X59505238Y-125913904D01*
X59505238Y-125913904D02*
X59581428Y-125875809D01*
X59581428Y-125875809D02*
X59619523Y-125837714D01*
X59619523Y-125837714D02*
X59657619Y-125761523D01*
X59657619Y-125761523D02*
X59657619Y-125113904D01*
X60000475Y-125190095D02*
X60038571Y-125152000D01*
X60038571Y-125152000D02*
X60114761Y-125113904D01*
X60114761Y-125113904D02*
X60305237Y-125113904D01*
X60305237Y-125113904D02*
X60381428Y-125152000D01*
X60381428Y-125152000D02*
X60419523Y-125190095D01*
X60419523Y-125190095D02*
X60457618Y-125266285D01*
X60457618Y-125266285D02*
X60457618Y-125342476D01*
X60457618Y-125342476D02*
X60419523Y-125456761D01*
X60419523Y-125456761D02*
X59962380Y-125913904D01*
X59962380Y-125913904D02*
X60457618Y-125913904D01*
D13*
%TO.C,Q2*%
X82527500Y-109180000D02*
X84202500Y-109180000D01*
X82527500Y-109180000D02*
X81877500Y-109180000D01*
X82527500Y-106060000D02*
X83177500Y-106060000D01*
X82527500Y-106060000D02*
X81877500Y-106060000D01*
%TO.C,J3*%
X89820000Y-126970000D02*
X89220000Y-126970000D01*
X88520000Y-126270000D02*
X88520000Y-124870000D01*
X90520000Y-124870000D02*
X90520000Y-126270000D01*
X89220000Y-124170000D02*
X89820000Y-124170000D01*
X88520000Y-126270000D02*
G75*
G03*
X89220000Y-126970000I699999J-1D01*
G01*
X89820000Y-126970000D02*
G75*
G03*
X90520000Y-126270000I1J699999D01*
G01*
X89220000Y-124170000D02*
G75*
G03*
X88520000Y-124870000I0J-700000D01*
G01*
X90520000Y-124870000D02*
G75*
G03*
X89820000Y-124170000I-700000J0D01*
G01*
%TO.C,R10*%
X62677742Y-103547500D02*
X63152258Y-103547500D01*
X62677742Y-104592500D02*
X63152258Y-104592500D01*
D14*
%TO.C,U3*%
X66250000Y-91725000D02*
X79450000Y-91725000D01*
X66250000Y-97105000D02*
X66250000Y-91725000D01*
X79450000Y-91725000D02*
X79450000Y-97105000D01*
D15*
X65700000Y-98725000D02*
G75*
G03*
X65700000Y-98725000I-100000J0D01*
G01*
D13*
%TO.C,D5*%
X84885000Y-126817500D02*
X83210000Y-126817500D01*
X84885000Y-126817500D02*
X85535000Y-126817500D01*
X84885000Y-129937500D02*
X84235000Y-129937500D01*
X84885000Y-129937500D02*
X85535000Y-129937500D01*
%TO.C,R6*%
X88227742Y-118667500D02*
X88702258Y-118667500D01*
X88227742Y-119712500D02*
X88702258Y-119712500D01*
%TO.C,R14*%
X82712742Y-94217500D02*
X83187258Y-94217500D01*
X82712742Y-95262500D02*
X83187258Y-95262500D01*
%TO.C,D1*%
X60127500Y-127865000D02*
X60127500Y-126165000D01*
X60127500Y-127865000D02*
X56867500Y-127865000D01*
X60127500Y-126165000D02*
X56867500Y-126165000D01*
%TO.C,R5*%
X81272500Y-122177742D02*
X81272500Y-122652258D01*
X80227500Y-122177742D02*
X80227500Y-122652258D01*
%TO.C,R13*%
X83197258Y-97052500D02*
X82722742Y-97052500D01*
X83197258Y-96007500D02*
X82722742Y-96007500D01*
%TO.C,C8*%
X63055580Y-102276667D02*
X62774420Y-102276667D01*
X63055580Y-101256667D02*
X62774420Y-101256667D01*
%TO.C,C5*%
X85605000Y-123994420D02*
X85605000Y-124275580D01*
X84585000Y-123994420D02*
X84585000Y-124275580D01*
%TO.C,U1*%
X84555000Y-114200000D02*
X84555000Y-110750000D01*
X84555000Y-114200000D02*
X84555000Y-116150000D01*
X79435000Y-114200000D02*
X79435000Y-112250000D01*
X79435000Y-114200000D02*
X79435000Y-116150000D01*
%TO.C,C7*%
X68008748Y-115325000D02*
X69431252Y-115325000D01*
X68008748Y-117145000D02*
X69431252Y-117145000D01*
%TO.C,R11*%
X83192258Y-98772500D02*
X82717742Y-98772500D01*
X83192258Y-97727500D02*
X82717742Y-97727500D01*
%TO.C,R3*%
X78437500Y-116177742D02*
X78437500Y-116652258D01*
X77392500Y-116177742D02*
X77392500Y-116652258D01*
%TO.C,C6*%
X87465000Y-124009420D02*
X87465000Y-124290580D01*
X86445000Y-124009420D02*
X86445000Y-124290580D01*
%TO.C,D2*%
X76150000Y-118837500D02*
X74680000Y-118837500D01*
X74680000Y-118837500D02*
X74680000Y-121122500D01*
X76150000Y-121122500D02*
X76150000Y-118837500D01*
%TO.C,L2*%
X58700000Y-113417500D02*
X58700000Y-113817500D01*
X58700000Y-113417500D02*
X64220000Y-113417500D01*
X58700000Y-118937500D02*
X58700000Y-118537500D01*
X58700000Y-118937500D02*
X64220000Y-118937500D01*
X64220000Y-113417500D02*
X64220000Y-113817500D01*
X64220000Y-118937500D02*
X64220000Y-118537500D01*
%TO.C,R2*%
X75952500Y-116177742D02*
X75952500Y-116652258D01*
X74907500Y-116177742D02*
X74907500Y-116652258D01*
%TO.C,D4*%
X57600000Y-114230000D02*
X55900000Y-114230000D01*
X57600000Y-114230000D02*
X57600000Y-117490000D01*
X55900000Y-114230000D02*
X55900000Y-117490000D01*
%TO.C,C1*%
X76710000Y-111809420D02*
X76710000Y-112090580D01*
X75690000Y-111809420D02*
X75690000Y-112090580D01*
%TO.C,R4*%
X82717500Y-122652258D02*
X82717500Y-122177742D01*
X83762500Y-122652258D02*
X83762500Y-122177742D01*
%TO.C,R12*%
X83152258Y-105342500D02*
X82677742Y-105342500D01*
X83152258Y-104297500D02*
X82677742Y-104297500D01*
%TO.C,D3*%
X78645000Y-118820000D02*
X77175000Y-118820000D01*
X77175000Y-118820000D02*
X77175000Y-121105000D01*
X78645000Y-121105000D02*
X78645000Y-118820000D01*
%TO.C,C2*%
X78430000Y-111809420D02*
X78430000Y-112090580D01*
X77410000Y-111809420D02*
X77410000Y-112090580D01*
%TO.C,C9*%
X63055580Y-99973334D02*
X62774420Y-99973334D01*
X63055580Y-98953334D02*
X62774420Y-98953334D01*
%TO.C,D6*%
X87020000Y-116210000D02*
X87020000Y-117680000D01*
X87020000Y-117680000D02*
X89305000Y-117680000D01*
X89305000Y-116210000D02*
X87020000Y-116210000D01*
%TO.C,D8*%
X68295000Y-110505000D02*
X66825000Y-110505000D01*
X66825000Y-110505000D02*
X66825000Y-112790000D01*
X68295000Y-112790000D02*
X68295000Y-110505000D01*
%TO.C,J1*%
X64085000Y-126050000D02*
X66085000Y-126050000D01*
X64085000Y-127300000D02*
X64085000Y-126050000D01*
X64475000Y-126440000D02*
X64475000Y-133910000D01*
X64475000Y-133910000D02*
X81325000Y-133910000D01*
X65685000Y-127400000D02*
X68685000Y-127400000D01*
X65685000Y-128750000D02*
X66435000Y-128750000D01*
X65685000Y-133050000D02*
X65685000Y-128750000D01*
X65935000Y-128400000D02*
X65685000Y-127400000D01*
X66435000Y-128400000D02*
X65935000Y-128400000D01*
X66435000Y-128750000D02*
X66435000Y-128400000D01*
X66435000Y-133050000D02*
X65685000Y-133050000D01*
X67935000Y-128400000D02*
X67935000Y-128750000D01*
X67935000Y-128750000D02*
X68685000Y-128750000D01*
X68435000Y-128400000D02*
X67935000Y-128400000D01*
X68685000Y-127400000D02*
X68435000Y-128400000D01*
X68685000Y-128750000D02*
X68685000Y-133050000D01*
X68685000Y-133050000D02*
X67935000Y-133050000D01*
X69495000Y-127400000D02*
X72495000Y-127400000D01*
X69495000Y-128750000D02*
X70245000Y-128750000D01*
X69495000Y-133050000D02*
X69495000Y-128750000D01*
X69745000Y-128400000D02*
X69495000Y-127400000D01*
X70245000Y-128400000D02*
X69745000Y-128400000D01*
X70245000Y-128750000D02*
X70245000Y-128400000D01*
X70245000Y-133050000D02*
X69495000Y-133050000D01*
X71745000Y-128400000D02*
X71745000Y-128750000D01*
X71745000Y-128750000D02*
X72495000Y-128750000D01*
X72245000Y-128400000D02*
X71745000Y-128400000D01*
X72495000Y-127400000D02*
X72245000Y-128400000D01*
X72495000Y-128750000D02*
X72495000Y-133050000D01*
X72495000Y-133050000D02*
X71745000Y-133050000D01*
X73305000Y-127400000D02*
X76305000Y-127400000D01*
X73305000Y-128750000D02*
X74055000Y-128750000D01*
X73305000Y-133050000D02*
X73305000Y-128750000D01*
X73555000Y-128400000D02*
X73305000Y-127400000D01*
X74055000Y-128400000D02*
X73555000Y-128400000D01*
X74055000Y-128750000D02*
X74055000Y-128400000D01*
X74055000Y-133050000D02*
X73305000Y-133050000D01*
X75555000Y-128400000D02*
X75555000Y-128750000D01*
X75555000Y-128750000D02*
X76305000Y-128750000D01*
X76055000Y-128400000D02*
X75555000Y-128400000D01*
X76305000Y-127400000D02*
X76055000Y-128400000D01*
X76305000Y-128750000D02*
X76305000Y-133050000D01*
X76305000Y-133050000D02*
X75555000Y-133050000D01*
X77115000Y-127400000D02*
X80115000Y-127400000D01*
X77115000Y-128750000D02*
X77865000Y-128750000D01*
X77115000Y-133050000D02*
X77115000Y-128750000D01*
X77365000Y-128400000D02*
X77115000Y-127400000D01*
X77865000Y-128400000D02*
X77365000Y-128400000D01*
X77865000Y-128750000D02*
X77865000Y-128400000D01*
X77865000Y-133050000D02*
X77115000Y-133050000D01*
X79365000Y-128400000D02*
X79365000Y-128750000D01*
X79365000Y-128750000D02*
X80115000Y-128750000D01*
X79865000Y-128400000D02*
X79365000Y-128400000D01*
X80115000Y-127400000D02*
X79865000Y-128400000D01*
X80115000Y-128750000D02*
X80115000Y-133050000D01*
X80115000Y-133050000D02*
X79365000Y-133050000D01*
X81325000Y-126440000D02*
X64475000Y-126440000D01*
X81325000Y-133910000D02*
X81325000Y-126440000D01*
X67934647Y-133049845D02*
G75*
G03*
X66435000Y-133050000I-749647J-1700155D01*
G01*
X71744647Y-133049845D02*
G75*
G03*
X70245000Y-133050000I-749647J-1700155D01*
G01*
X75554647Y-133049845D02*
G75*
G03*
X74055000Y-133050000I-749647J-1700155D01*
G01*
X79364647Y-133049845D02*
G75*
G03*
X77865000Y-133050000I-749647J-1700155D01*
G01*
%TO.C,C10*%
X63055580Y-97670000D02*
X62774420Y-97670000D01*
X63055580Y-96650000D02*
X62774420Y-96650000D01*
%TO.C,R1*%
X85667500Y-120437742D02*
X85667500Y-120912258D01*
X84622500Y-120437742D02*
X84622500Y-120912258D01*
%TO.C,R7*%
X88227742Y-111892500D02*
X88702258Y-111892500D01*
X88227742Y-112937500D02*
X88702258Y-112937500D01*
%TO.C,R17*%
X73282500Y-111712742D02*
X73282500Y-112187258D01*
X72237500Y-111712742D02*
X72237500Y-112187258D01*
%TO.C,R15*%
X73957500Y-112187258D02*
X73957500Y-111712742D01*
X75002500Y-112187258D02*
X75002500Y-111712742D01*
D14*
%TO.C,L1*%
X82445000Y-120157500D02*
X81545000Y-120157500D01*
X83595000Y-121157500D02*
X83595000Y-123657500D01*
X80395000Y-121157500D02*
X80395000Y-123657500D01*
X82445000Y-124657500D02*
X81545000Y-124657500D01*
D15*
X83495000Y-118707500D02*
G75*
G03*
X83495000Y-118707500I-100000J0D01*
G01*
D13*
%TO.C,R16*%
X71562500Y-111712742D02*
X71562500Y-112187258D01*
X70517500Y-111712742D02*
X70517500Y-112187258D01*
%TO.C,C3*%
X64412500Y-120237500D02*
X65200000Y-120237500D01*
X64806250Y-119843750D02*
X64806250Y-120631250D01*
X65440000Y-119739437D02*
X65440000Y-121025000D01*
X65440000Y-119739437D02*
X66504437Y-118675000D01*
X65440000Y-124430563D02*
X65440000Y-123145000D01*
X65440000Y-124430563D02*
X66504437Y-125495000D01*
X66504437Y-118675000D02*
X72260000Y-118675000D01*
X66504437Y-125495000D02*
X72260000Y-125495000D01*
X72260000Y-118675000D02*
X72260000Y-121025000D01*
X72260000Y-125495000D02*
X72260000Y-123145000D01*
%TO.C,C4*%
X62264420Y-126505000D02*
X62545580Y-126505000D01*
X62264420Y-127525000D02*
X62545580Y-127525000D01*
%TO.C,F1*%
X60687936Y-128495000D02*
X61892064Y-128495000D01*
X60687936Y-130315000D02*
X61892064Y-130315000D01*
%TO.C,R9*%
X68797500Y-112187258D02*
X68797500Y-111712742D01*
X69842500Y-112187258D02*
X69842500Y-111712742D01*
%TO.C,G\u002A\u002A\u002A*%
G36*
X57109519Y-108010977D02*
G01*
X57152436Y-108029742D01*
X57190097Y-108064673D01*
X57216053Y-108108146D01*
X57224101Y-108146490D01*
X57213935Y-108203420D01*
X57186421Y-108249453D01*
X57146039Y-108281634D01*
X57097268Y-108297010D01*
X57044585Y-108292625D01*
X57018375Y-108282202D01*
X56975614Y-108247764D01*
X56948802Y-108200430D01*
X56939731Y-108146871D01*
X56950193Y-108093754D01*
X56961814Y-108071677D01*
X56996561Y-108038106D01*
X57044401Y-108015923D01*
X57095183Y-108009298D01*
X57109519Y-108010977D01*
G37*
G36*
X59888575Y-109108579D02*
G01*
X59909870Y-109146134D01*
X59909015Y-109180220D01*
X59885559Y-109215850D01*
X59878224Y-109223494D01*
X59842648Y-109259070D01*
X59613514Y-109259024D01*
X59532083Y-109258794D01*
X59471151Y-109257909D01*
X59426878Y-109256024D01*
X59395425Y-109252795D01*
X59372951Y-109247875D01*
X59355617Y-109240919D01*
X59344825Y-109234862D01*
X59316999Y-109212933D01*
X59306243Y-109187180D01*
X59305271Y-109170678D01*
X59311097Y-109133519D01*
X59324217Y-109103560D01*
X59331228Y-109094631D01*
X59340230Y-109087920D01*
X59354488Y-109083111D01*
X59377270Y-109079888D01*
X59411843Y-109077933D01*
X59461472Y-109076929D01*
X59529425Y-109076561D01*
X59603256Y-109076511D01*
X59863350Y-109076511D01*
X59888575Y-109108579D01*
G37*
G36*
X57134590Y-108617652D02*
G01*
X57148956Y-108630027D01*
X57155342Y-108637245D01*
X57160608Y-108645540D01*
X57164861Y-108657168D01*
X57168211Y-108674385D01*
X57170765Y-108699447D01*
X57172631Y-108734610D01*
X57173916Y-108782131D01*
X57174730Y-108844265D01*
X57175179Y-108923269D01*
X57175373Y-109021397D01*
X57175418Y-109140908D01*
X57175419Y-109182905D01*
X57175419Y-109707615D01*
X57143351Y-109732839D01*
X57100479Y-109754447D01*
X57055244Y-109752249D01*
X57033803Y-109743829D01*
X57021248Y-109736822D01*
X57010842Y-109727609D01*
X57002383Y-109714004D01*
X56995671Y-109693821D01*
X56990504Y-109664876D01*
X56986681Y-109624984D01*
X56984001Y-109571958D01*
X56982263Y-109503615D01*
X56981266Y-109417769D01*
X56980809Y-109312234D01*
X56980691Y-109184826D01*
X56980690Y-109166665D01*
X56980690Y-108661605D01*
X57010563Y-108631732D01*
X57049957Y-108607002D01*
X57093777Y-108602278D01*
X57134590Y-108617652D01*
G37*
G36*
X60358423Y-109156553D02*
G01*
X60389278Y-109196515D01*
X60414949Y-109243884D01*
X60461613Y-109320283D01*
X60525253Y-109397753D01*
X60599615Y-109470087D01*
X60678447Y-109531077D01*
X60741399Y-109567958D01*
X60825839Y-109605454D01*
X60902728Y-109629845D01*
X60981824Y-109643364D01*
X61072884Y-109648248D01*
X61092589Y-109648384D01*
X61223599Y-109640845D01*
X61339001Y-109616962D01*
X61442414Y-109575321D01*
X61537457Y-109514506D01*
X61618252Y-109442790D01*
X61674597Y-109381928D01*
X61716820Y-109325450D01*
X61751317Y-109264648D01*
X61755851Y-109255384D01*
X61785358Y-109199682D01*
X61811618Y-109164781D01*
X61838027Y-109148067D01*
X61867984Y-109146926D01*
X61889282Y-109152700D01*
X61922462Y-109172527D01*
X61937090Y-109203683D01*
X61933594Y-109248228D01*
X61918542Y-109293642D01*
X61860667Y-109405935D01*
X61782424Y-109510441D01*
X61687314Y-109604148D01*
X61578838Y-109684043D01*
X61460495Y-109747113D01*
X61343843Y-109788244D01*
X61292590Y-109798172D01*
X61225318Y-109805992D01*
X61149562Y-109811356D01*
X61072855Y-109813917D01*
X61002732Y-109813327D01*
X60946726Y-109809239D01*
X60933248Y-109807178D01*
X60832394Y-109782091D01*
X60727450Y-109742163D01*
X60650120Y-109705194D01*
X60579671Y-109662191D01*
X60507388Y-109605824D01*
X60436790Y-109540070D01*
X60371398Y-109468904D01*
X60314734Y-109396301D01*
X60270317Y-109326238D01*
X60241668Y-109262691D01*
X60234608Y-109235971D01*
X60232237Y-109203879D01*
X60243597Y-109180961D01*
X60259580Y-109165633D01*
X60295619Y-109142142D01*
X60327885Y-109138772D01*
X60358423Y-109156553D01*
G37*
G36*
X56244893Y-107973445D02*
G01*
X56332218Y-107987793D01*
X56413992Y-108013921D01*
X56451270Y-108029970D01*
X56521301Y-108068484D01*
X56567839Y-108108337D01*
X56590692Y-108149097D01*
X56589669Y-108190334D01*
X56564577Y-108231617D01*
X56548211Y-108247651D01*
X56510934Y-108274483D01*
X56476725Y-108283123D01*
X56439435Y-108273416D01*
X56392913Y-108245208D01*
X56390778Y-108243696D01*
X56305373Y-108197433D01*
X56210949Y-108171811D01*
X56111890Y-108167150D01*
X56012580Y-108183771D01*
X55939987Y-108210669D01*
X55868190Y-108255821D01*
X55816411Y-108313597D01*
X55785666Y-108381845D01*
X55776970Y-108458415D01*
X55788509Y-108531500D01*
X55805041Y-108573569D01*
X55831351Y-108611139D01*
X55869872Y-108645781D01*
X55923033Y-108679064D01*
X55993268Y-108712559D01*
X56083006Y-108747835D01*
X56171346Y-108778686D01*
X56274897Y-108815199D01*
X56358339Y-108848838D01*
X56425436Y-108881497D01*
X56479949Y-108915070D01*
X56525639Y-108951453D01*
X56538692Y-108963688D01*
X56597226Y-109035033D01*
X56636521Y-109117703D01*
X56657784Y-109214535D01*
X56661153Y-109251722D01*
X56657384Y-109363271D01*
X56632477Y-109464509D01*
X56587809Y-109554375D01*
X56524759Y-109631807D01*
X56444704Y-109695742D01*
X56349022Y-109745120D01*
X56239090Y-109778878D01*
X56116285Y-109795955D01*
X55981986Y-109795290D01*
X55958361Y-109793359D01*
X55846221Y-109774481D01*
X55742163Y-109740387D01*
X55651240Y-109693109D01*
X55588623Y-109644613D01*
X55555033Y-109604189D01*
X55545003Y-109566427D01*
X55558459Y-109528154D01*
X55585224Y-109495897D01*
X55630902Y-109459023D01*
X55671897Y-109445289D01*
X55709847Y-109454331D01*
X55725137Y-109464722D01*
X55802072Y-109520630D01*
X55875961Y-109562079D01*
X55927101Y-109582016D01*
X56014019Y-109598000D01*
X56102729Y-109596737D01*
X56188850Y-109579769D01*
X56268005Y-109548641D01*
X56335813Y-109504894D01*
X56387895Y-109450072D01*
X56410058Y-109411881D01*
X56426940Y-109353782D01*
X56432029Y-109287011D01*
X56425050Y-109223025D01*
X56415375Y-109191732D01*
X56397685Y-109156818D01*
X56374231Y-109126485D01*
X56342064Y-109098958D01*
X56298233Y-109072463D01*
X56239787Y-109045223D01*
X56163775Y-109015463D01*
X56067248Y-108981409D01*
X56063903Y-108980268D01*
X55965322Y-108945741D01*
X55886509Y-108915734D01*
X55823734Y-108888424D01*
X55773267Y-108861985D01*
X55731375Y-108834592D01*
X55694328Y-108804422D01*
X55682992Y-108793981D01*
X55620254Y-108718870D01*
X55577038Y-108632976D01*
X55553317Y-108540016D01*
X55549063Y-108443709D01*
X55564248Y-108347773D01*
X55598845Y-108255926D01*
X55652825Y-108171887D01*
X55687905Y-108133138D01*
X55774559Y-108064659D01*
X55876733Y-108014233D01*
X55993112Y-107982334D01*
X56122378Y-107969436D01*
X56143363Y-107969168D01*
X56244893Y-107973445D01*
G37*
G36*
X62484021Y-108006779D02*
G01*
X62513910Y-108012270D01*
X62536614Y-108024461D01*
X62553509Y-108038969D01*
X62566434Y-108054539D01*
X62591942Y-108088386D01*
X62628787Y-108138762D01*
X62675721Y-108203914D01*
X62731498Y-108282091D01*
X62794870Y-108371542D01*
X62864590Y-108470516D01*
X62939410Y-108577262D01*
X63018084Y-108690029D01*
X63054099Y-108741820D01*
X63133562Y-108856115D01*
X63209236Y-108964779D01*
X63279932Y-109066114D01*
X63344462Y-109158427D01*
X63401636Y-109240021D01*
X63450265Y-109309201D01*
X63489161Y-109364272D01*
X63517135Y-109403537D01*
X63532998Y-109425301D01*
X63535951Y-109429023D01*
X63539575Y-109430034D01*
X63542653Y-109423667D01*
X63545230Y-109408231D01*
X63547346Y-109382033D01*
X63549044Y-109343381D01*
X63550365Y-109290583D01*
X63551353Y-109221946D01*
X63552048Y-109135778D01*
X63552493Y-109030386D01*
X63552731Y-108904078D01*
X63552803Y-108755161D01*
X63552803Y-108751342D01*
X63552803Y-108055840D01*
X63590188Y-108029219D01*
X63626567Y-108010411D01*
X63665531Y-108008783D01*
X63672339Y-108009765D01*
X63689114Y-108012063D01*
X63703598Y-108014327D01*
X63715960Y-108018241D01*
X63726367Y-108025489D01*
X63734986Y-108037754D01*
X63741986Y-108056722D01*
X63747533Y-108084077D01*
X63751795Y-108121503D01*
X63754939Y-108170683D01*
X63757133Y-108233303D01*
X63758545Y-108311047D01*
X63759341Y-108405598D01*
X63759690Y-108518641D01*
X63759759Y-108651861D01*
X63759715Y-108806941D01*
X63759703Y-108888332D01*
X63759703Y-109707615D01*
X63727635Y-109732839D01*
X63704011Y-109747079D01*
X63673870Y-109754895D01*
X63629742Y-109757872D01*
X63608637Y-109758064D01*
X63551561Y-109755302D01*
X63511242Y-109747488D01*
X63497701Y-109741158D01*
X63486875Y-109728549D01*
X63463367Y-109697588D01*
X63428358Y-109649930D01*
X63383030Y-109587228D01*
X63328563Y-109511138D01*
X63266140Y-109423315D01*
X63196941Y-109325413D01*
X63122148Y-109219087D01*
X63042943Y-109105992D01*
X62986871Y-109025643D01*
X62500048Y-108327035D01*
X62493962Y-109009080D01*
X62492661Y-109136133D01*
X62491108Y-109256187D01*
X62489353Y-109366981D01*
X62487449Y-109466254D01*
X62485447Y-109551745D01*
X62483396Y-109621193D01*
X62481350Y-109672337D01*
X62479358Y-109702917D01*
X62478080Y-109710776D01*
X62451913Y-109738563D01*
X62412474Y-109753829D01*
X62367828Y-109755764D01*
X62326042Y-109743557D01*
X62304765Y-109728191D01*
X62274892Y-109698317D01*
X62274892Y-108889416D01*
X62275003Y-108750895D01*
X62275324Y-108619281D01*
X62275837Y-108496638D01*
X62276521Y-108385029D01*
X62277359Y-108286519D01*
X62278331Y-108203172D01*
X62279419Y-108137052D01*
X62280604Y-108090223D01*
X62281868Y-108064748D01*
X62282452Y-108060813D01*
X62305046Y-108034530D01*
X62347764Y-108016050D01*
X62407313Y-108006541D01*
X62438398Y-108005500D01*
X62484021Y-108006779D01*
G37*
G36*
X57552707Y-108879074D02*
G01*
X57552707Y-108877979D01*
X57771777Y-108877979D01*
X57771777Y-108879074D01*
X57771851Y-109019626D01*
X57772111Y-109137837D01*
X57772617Y-109235707D01*
X57773426Y-109315237D01*
X57774598Y-109378426D01*
X57776191Y-109427276D01*
X57778265Y-109463785D01*
X57780877Y-109489955D01*
X57784088Y-109507784D01*
X57787954Y-109519274D01*
X57790723Y-109524115D01*
X57797942Y-109533268D01*
X57807227Y-109540079D01*
X57821953Y-109544891D01*
X57845494Y-109548046D01*
X57881226Y-109549888D01*
X57932522Y-109550758D01*
X58002759Y-109550999D01*
X58055434Y-109550984D01*
X58159047Y-109550145D01*
X58241514Y-109547677D01*
X58305987Y-109543397D01*
X58355617Y-109537124D01*
X58379663Y-109532310D01*
X58498677Y-109493156D01*
X58601608Y-109436040D01*
X58687861Y-109361777D01*
X58756839Y-109271186D01*
X58807945Y-109165081D01*
X58840585Y-109044281D01*
X58854161Y-108909600D01*
X58854536Y-108881782D01*
X58845778Y-108747743D01*
X58819092Y-108629042D01*
X58773862Y-108523907D01*
X58709471Y-108430564D01*
X58690031Y-108408564D01*
X58607741Y-108335812D01*
X58510318Y-108279764D01*
X58395471Y-108239127D01*
X58385223Y-108236442D01*
X58346206Y-108227534D01*
X58306028Y-108221054D01*
X58259885Y-108216652D01*
X58202972Y-108213979D01*
X58130485Y-108212682D01*
X58055839Y-108212400D01*
X57974075Y-108212557D01*
X57913114Y-108213248D01*
X57869418Y-108214805D01*
X57839449Y-108217560D01*
X57819671Y-108221844D01*
X57806546Y-108227989D01*
X57796536Y-108236326D01*
X57796119Y-108236741D01*
X57790664Y-108242863D01*
X57786091Y-108250751D01*
X57782322Y-108262456D01*
X57779280Y-108280029D01*
X57776887Y-108305522D01*
X57775065Y-108340984D01*
X57773737Y-108388468D01*
X57772825Y-108450023D01*
X57772250Y-108527701D01*
X57771936Y-108623552D01*
X57771804Y-108739628D01*
X57771777Y-108877979D01*
X57552707Y-108877979D01*
X57552707Y-108875561D01*
X57552707Y-108076651D01*
X57588283Y-108041076D01*
X57623858Y-108005500D01*
X57945720Y-108005500D01*
X58075961Y-108006321D01*
X58185204Y-108009021D01*
X58276745Y-108013960D01*
X58353882Y-108021497D01*
X58419910Y-108031990D01*
X58478126Y-108045798D01*
X58531825Y-108063280D01*
X58553424Y-108071642D01*
X58683215Y-108136120D01*
X58797047Y-108217685D01*
X58893571Y-108314937D01*
X58971441Y-108426475D01*
X59029308Y-108550898D01*
X59037621Y-108574936D01*
X59067062Y-108694903D01*
X59081870Y-108825667D01*
X59081756Y-108958550D01*
X59066434Y-109084878D01*
X59056072Y-109131279D01*
X59010005Y-109263437D01*
X58943851Y-109382993D01*
X58859111Y-109488587D01*
X58757284Y-109578863D01*
X58639870Y-109652462D01*
X58508372Y-109708029D01*
X58382278Y-109740916D01*
X58343470Y-109746061D01*
X58287609Y-109750337D01*
X58218383Y-109753736D01*
X58139481Y-109756250D01*
X58054590Y-109757873D01*
X57967398Y-109758596D01*
X57881594Y-109758413D01*
X57800866Y-109757316D01*
X57728902Y-109755298D01*
X57669391Y-109752351D01*
X57626019Y-109748469D01*
X57602476Y-109743644D01*
X57600335Y-109742463D01*
X57591026Y-109734893D01*
X57583017Y-109726338D01*
X57576210Y-109715022D01*
X57570506Y-109699166D01*
X57565809Y-109676994D01*
X57562021Y-109646728D01*
X57559043Y-109606591D01*
X57556779Y-109554805D01*
X57555131Y-109489593D01*
X57554001Y-109409178D01*
X57553291Y-109311783D01*
X57552904Y-109195630D01*
X57552742Y-109058941D01*
X57552707Y-108899940D01*
X57552707Y-108879074D01*
G37*
G36*
X60362244Y-108680569D02*
G01*
X60381979Y-108676592D01*
X60417532Y-108674835D01*
X60464518Y-108674328D01*
X60577096Y-108673774D01*
X60726003Y-108537409D01*
X60874909Y-108401044D01*
X60875092Y-108282381D01*
X60874044Y-108221412D01*
X60870538Y-108182967D01*
X60864371Y-108165332D01*
X60860970Y-108163718D01*
X60844037Y-108168800D01*
X60811471Y-108182328D01*
X60769339Y-108201726D01*
X60754477Y-108208924D01*
X60676118Y-108256421D01*
X60595957Y-108320923D01*
X60520087Y-108396409D01*
X60454602Y-108476860D01*
X60408326Y-108550925D01*
X60380767Y-108598705D01*
X60355481Y-108633132D01*
X60335848Y-108649609D01*
X60335711Y-108649661D01*
X60295398Y-108652962D01*
X60258355Y-108636744D01*
X60233358Y-108605130D01*
X60231691Y-108600804D01*
X60230284Y-108563855D01*
X60245183Y-108514639D01*
X60273998Y-108456474D01*
X60314337Y-108392681D01*
X60363809Y-108326576D01*
X60420023Y-108261480D01*
X60480589Y-108200710D01*
X60543114Y-108147586D01*
X60574703Y-108124699D01*
X60695442Y-108053529D01*
X60817572Y-108004345D01*
X60946212Y-107975599D01*
X61086480Y-107965743D01*
X61100431Y-107965733D01*
X61251245Y-107977501D01*
X61391826Y-108011346D01*
X61522144Y-108067255D01*
X61642165Y-108145216D01*
X61703699Y-108197419D01*
X61763141Y-108258076D01*
X61818613Y-108325119D01*
X61867365Y-108394223D01*
X61906646Y-108461061D01*
X61933704Y-108521308D01*
X61945790Y-108570640D01*
X61946167Y-108578674D01*
X61935492Y-108615507D01*
X61906675Y-108641020D01*
X61865063Y-108650541D01*
X61841288Y-108647826D01*
X61821197Y-108637236D01*
X61801516Y-108615107D01*
X61778968Y-108577773D01*
X61750859Y-108522750D01*
X61708629Y-108453358D01*
X61650893Y-108381187D01*
X61583941Y-108312725D01*
X61514066Y-108254464D01*
X61453378Y-108215855D01*
X61363150Y-108177270D01*
X61262005Y-108147990D01*
X61160755Y-108130717D01*
X61098738Y-108127206D01*
X61056095Y-108128710D01*
X61010770Y-108132687D01*
X60967437Y-108138337D01*
X60930769Y-108144859D01*
X60905442Y-108151452D01*
X60896129Y-108157316D01*
X60902659Y-108160796D01*
X60912725Y-108165999D01*
X60919060Y-108179280D01*
X60922484Y-108205236D01*
X60923818Y-108248465D01*
X60923958Y-108280231D01*
X60924331Y-108333722D01*
X60926090Y-108367409D01*
X60930198Y-108385821D01*
X60937616Y-108393493D01*
X60948299Y-108394959D01*
X60959612Y-108393213D01*
X60966752Y-108384965D01*
X60970670Y-108365700D01*
X60972315Y-108330903D01*
X60972640Y-108279338D01*
X60973008Y-108225600D01*
X60974744Y-108191685D01*
X60978800Y-108173076D01*
X60986125Y-108165260D01*
X60996981Y-108163718D01*
X61008294Y-108165464D01*
X61015434Y-108173712D01*
X61019352Y-108192977D01*
X61020998Y-108227774D01*
X61021322Y-108279338D01*
X61021690Y-108333076D01*
X61023426Y-108366992D01*
X61027482Y-108385600D01*
X61034808Y-108393417D01*
X61045663Y-108394959D01*
X61056977Y-108393213D01*
X61064117Y-108384965D01*
X61068034Y-108365700D01*
X61069680Y-108330903D01*
X61070005Y-108279338D01*
X61070658Y-108224223D01*
X61073048Y-108189344D01*
X61077818Y-108170620D01*
X61085613Y-108163972D01*
X61088260Y-108163718D01*
X61096963Y-108167856D01*
X61102470Y-108182990D01*
X61105426Y-108213201D01*
X61106476Y-108262569D01*
X61106516Y-108279338D01*
X61106884Y-108333076D01*
X61108620Y-108366992D01*
X61112676Y-108385600D01*
X61120002Y-108393417D01*
X61130857Y-108394959D01*
X61142171Y-108393213D01*
X61149311Y-108384965D01*
X61153228Y-108365700D01*
X61154874Y-108330903D01*
X61155199Y-108279338D01*
X61155566Y-108225600D01*
X61157303Y-108191685D01*
X61161358Y-108173076D01*
X61168684Y-108165260D01*
X61179540Y-108163718D01*
X61190853Y-108165464D01*
X61197993Y-108173712D01*
X61201911Y-108192977D01*
X61203556Y-108227774D01*
X61203881Y-108279338D01*
X61204249Y-108333076D01*
X61205985Y-108366992D01*
X61210041Y-108385600D01*
X61217366Y-108393417D01*
X61228222Y-108394959D01*
X61239535Y-108393213D01*
X61246675Y-108384965D01*
X61250593Y-108365700D01*
X61252239Y-108330903D01*
X61252563Y-108279338D01*
X61252931Y-108225600D01*
X61254667Y-108191685D01*
X61258723Y-108173076D01*
X61266049Y-108165260D01*
X61276904Y-108163718D01*
X61288181Y-108165452D01*
X61295314Y-108173652D01*
X61299243Y-108192817D01*
X61300907Y-108227444D01*
X61301246Y-108280265D01*
X61301246Y-108396812D01*
X61431742Y-108535847D01*
X61562238Y-108674882D01*
X61675153Y-108674882D01*
X61728142Y-108675266D01*
X61761361Y-108677075D01*
X61779375Y-108681293D01*
X61786751Y-108688904D01*
X61788069Y-108699223D01*
X61786323Y-108710537D01*
X61778075Y-108717677D01*
X61758810Y-108721594D01*
X61724013Y-108723240D01*
X61672448Y-108723564D01*
X61618710Y-108723932D01*
X61584795Y-108725668D01*
X61566186Y-108729724D01*
X61558370Y-108737050D01*
X61556828Y-108747906D01*
X61558574Y-108759219D01*
X61566822Y-108766359D01*
X61586087Y-108770277D01*
X61620884Y-108771922D01*
X61672448Y-108772247D01*
X61726186Y-108772614D01*
X61760102Y-108774351D01*
X61778710Y-108778407D01*
X61786527Y-108785732D01*
X61788069Y-108796588D01*
X61786323Y-108807901D01*
X61778075Y-108815041D01*
X61758810Y-108818959D01*
X61724013Y-108820604D01*
X61672448Y-108820929D01*
X61618710Y-108821297D01*
X61584795Y-108823033D01*
X61566186Y-108827089D01*
X61558370Y-108834415D01*
X61556828Y-108845270D01*
X61558574Y-108856584D01*
X61566822Y-108863724D01*
X61586087Y-108867641D01*
X61620884Y-108869287D01*
X61672448Y-108869611D01*
X61726186Y-108869979D01*
X61760102Y-108871715D01*
X61778710Y-108875771D01*
X61786527Y-108883097D01*
X61788069Y-108893953D01*
X61786323Y-108905266D01*
X61778075Y-108912406D01*
X61758810Y-108916324D01*
X61724013Y-108917969D01*
X61672448Y-108918294D01*
X61617333Y-108918947D01*
X61582454Y-108921337D01*
X61563730Y-108926107D01*
X61557082Y-108933902D01*
X61556828Y-108936550D01*
X61560966Y-108945252D01*
X61576100Y-108950759D01*
X61606311Y-108953716D01*
X61655679Y-108954765D01*
X61672448Y-108954805D01*
X61726186Y-108955173D01*
X61760102Y-108956909D01*
X61778710Y-108960965D01*
X61786527Y-108968291D01*
X61788069Y-108979147D01*
X61786323Y-108990460D01*
X61778075Y-108997600D01*
X61758810Y-109001518D01*
X61724013Y-109003163D01*
X61672448Y-109003488D01*
X61618710Y-109003855D01*
X61584795Y-109005592D01*
X61566186Y-109009648D01*
X61558370Y-109016973D01*
X61556828Y-109027829D01*
X61558574Y-109039142D01*
X61566822Y-109046282D01*
X61586087Y-109050200D01*
X61620884Y-109051845D01*
X61672448Y-109052170D01*
X61726186Y-109052538D01*
X61760102Y-109054274D01*
X61778710Y-109058330D01*
X61786527Y-109065656D01*
X61788069Y-109076511D01*
X61786209Y-109088161D01*
X61777516Y-109095361D01*
X61757317Y-109099170D01*
X61720938Y-109100643D01*
X61680485Y-109100852D01*
X61572902Y-109100852D01*
X61437214Y-109237771D01*
X61301527Y-109374690D01*
X61301386Y-109487268D01*
X61300932Y-109540166D01*
X61299068Y-109573299D01*
X61294800Y-109591239D01*
X61287133Y-109598559D01*
X61276904Y-109599846D01*
X61265340Y-109598016D01*
X61258154Y-109589437D01*
X61254316Y-109569475D01*
X61252799Y-109533499D01*
X61252563Y-109490311D01*
X61252157Y-109438270D01*
X61250250Y-109405932D01*
X61245814Y-109388665D01*
X61237820Y-109381837D01*
X61228222Y-109380776D01*
X61216657Y-109382606D01*
X61209471Y-109391185D01*
X61205634Y-109411147D01*
X61204117Y-109447123D01*
X61203881Y-109490311D01*
X61203474Y-109542352D01*
X61201568Y-109574690D01*
X61197132Y-109591957D01*
X61189137Y-109598785D01*
X61179540Y-109599846D01*
X61167975Y-109598016D01*
X61160789Y-109589437D01*
X61156952Y-109569475D01*
X61155434Y-109533499D01*
X61155199Y-109490311D01*
X61154792Y-109438270D01*
X61152885Y-109405932D01*
X61148450Y-109388665D01*
X61140455Y-109381837D01*
X61130857Y-109380776D01*
X61119293Y-109382606D01*
X61112107Y-109391185D01*
X61108270Y-109411147D01*
X61106752Y-109447123D01*
X61106516Y-109490311D01*
X61105805Y-109543749D01*
X61103208Y-109577035D01*
X61098034Y-109594328D01*
X61089587Y-109599788D01*
X61088260Y-109599846D01*
X61079354Y-109595578D01*
X61073807Y-109579999D01*
X61070924Y-109548950D01*
X61070014Y-109498271D01*
X61070005Y-109490311D01*
X61069598Y-109438270D01*
X61067691Y-109405932D01*
X61063256Y-109388665D01*
X61055261Y-109381837D01*
X61045663Y-109380776D01*
X61034099Y-109382606D01*
X61026913Y-109391185D01*
X61023075Y-109411147D01*
X61021558Y-109447123D01*
X61021322Y-109490311D01*
X61020916Y-109542352D01*
X61019009Y-109574690D01*
X61014573Y-109591957D01*
X61006579Y-109598785D01*
X60996981Y-109599846D01*
X60985416Y-109598016D01*
X60978230Y-109589437D01*
X60974393Y-109569475D01*
X60972876Y-109533499D01*
X60972640Y-109490311D01*
X60972233Y-109438270D01*
X60970327Y-109405932D01*
X60965891Y-109388665D01*
X60957896Y-109381837D01*
X60948299Y-109380776D01*
X60936734Y-109382606D01*
X60929548Y-109391185D01*
X60925711Y-109411147D01*
X60924193Y-109447123D01*
X60923958Y-109490311D01*
X60923551Y-109542352D01*
X60921644Y-109574690D01*
X60917209Y-109591957D01*
X60909214Y-109598785D01*
X60899616Y-109599846D01*
X60888222Y-109598074D01*
X60881067Y-109589720D01*
X60877174Y-109570234D01*
X60875570Y-109535061D01*
X60875275Y-109486228D01*
X60875275Y-109372610D01*
X60726538Y-109236731D01*
X60577801Y-109100852D01*
X60464871Y-109100852D01*
X60411878Y-109100468D01*
X60378655Y-109098660D01*
X60360638Y-109094443D01*
X60353259Y-109086833D01*
X60351940Y-109076511D01*
X60353686Y-109065198D01*
X60361934Y-109058058D01*
X60381199Y-109054140D01*
X60415997Y-109052495D01*
X60467561Y-109052170D01*
X60521299Y-109051803D01*
X60555214Y-109050066D01*
X60573823Y-109046010D01*
X60581639Y-109038685D01*
X60583181Y-109027829D01*
X60581435Y-109016516D01*
X60580444Y-109015658D01*
X60704392Y-109015658D01*
X60728567Y-109061298D01*
X60763749Y-109119095D01*
X60802818Y-109163056D01*
X60838085Y-109191786D01*
X60864568Y-109210650D01*
X60881345Y-109221515D01*
X60883725Y-109222558D01*
X60885407Y-109211319D01*
X60886693Y-109181329D01*
X60887382Y-109138175D01*
X60887446Y-109119108D01*
X60887446Y-109015658D01*
X60795919Y-109015658D01*
X60704392Y-109015658D01*
X60580444Y-109015658D01*
X60573188Y-109009376D01*
X60553923Y-109005458D01*
X60519125Y-109003812D01*
X60467561Y-109003488D01*
X60413823Y-109003120D01*
X60379907Y-109001384D01*
X60361299Y-108997328D01*
X60353483Y-108990002D01*
X60351940Y-108979147D01*
X60353686Y-108967833D01*
X60361934Y-108960693D01*
X60381199Y-108956776D01*
X60415997Y-108955130D01*
X60467561Y-108954805D01*
X60521299Y-108954438D01*
X60555214Y-108952702D01*
X60573823Y-108948646D01*
X60581639Y-108941320D01*
X60583181Y-108930464D01*
X60581435Y-108919151D01*
X60573188Y-108912011D01*
X60553923Y-108908093D01*
X60519125Y-108906448D01*
X60467561Y-108906123D01*
X60412185Y-108905434D01*
X60377137Y-108902958D01*
X60358430Y-108898082D01*
X60352079Y-108890191D01*
X60351940Y-108888324D01*
X60353569Y-108885448D01*
X60690411Y-108885448D01*
X60692333Y-108931756D01*
X60696319Y-108966414D01*
X60698729Y-108976104D01*
X60711926Y-108984525D01*
X60745478Y-108989507D01*
X60801202Y-108991303D01*
X60807955Y-108991317D01*
X60911787Y-108991317D01*
X60911787Y-109112418D01*
X60912940Y-109174410D01*
X60917549Y-109216068D01*
X60927337Y-109241339D01*
X60944027Y-109254168D01*
X60969344Y-109258503D01*
X60975683Y-109258700D01*
X60984776Y-109256615D01*
X60990860Y-109247335D01*
X60994525Y-109226881D01*
X60996360Y-109191276D01*
X60996956Y-109136544D01*
X60996981Y-109115106D01*
X60996981Y-108971143D01*
X60929166Y-108883865D01*
X60861352Y-108796588D01*
X60777034Y-108796588D01*
X60692717Y-108796588D01*
X60691028Y-108836142D01*
X60690411Y-108885448D01*
X60353569Y-108885448D01*
X60356952Y-108879477D01*
X60374576Y-108873475D01*
X60408695Y-108869582D01*
X60463195Y-108867063D01*
X60464379Y-108867026D01*
X60518285Y-108864723D01*
X60552410Y-108861233D01*
X60571316Y-108855587D01*
X60579561Y-108846812D01*
X60580892Y-108842228D01*
X60580462Y-108832333D01*
X60571759Y-108826061D01*
X60550536Y-108822609D01*
X60512544Y-108821170D01*
X60468453Y-108820929D01*
X60414470Y-108820567D01*
X60380326Y-108818853D01*
X60361522Y-108814849D01*
X60353560Y-108807613D01*
X60351940Y-108796588D01*
X60353686Y-108785275D01*
X60361934Y-108778135D01*
X60381199Y-108774217D01*
X60415997Y-108772571D01*
X60467561Y-108772247D01*
X60521299Y-108771879D01*
X60555214Y-108770143D01*
X60573823Y-108766087D01*
X60581639Y-108758761D01*
X60583181Y-108747906D01*
X60583170Y-108747832D01*
X60712320Y-108747832D01*
X60717124Y-108755342D01*
X60736239Y-108759473D01*
X60774137Y-108761994D01*
X60786601Y-108762560D01*
X60868572Y-108766162D01*
X60944947Y-108861669D01*
X61021322Y-108957176D01*
X61021322Y-109114208D01*
X61021532Y-109178518D01*
X61022562Y-109222381D01*
X61025016Y-109249691D01*
X61029499Y-109264341D01*
X61036613Y-109270224D01*
X61045663Y-109271241D01*
X61054962Y-109270058D01*
X61061533Y-109264115D01*
X61065848Y-109249823D01*
X61068380Y-109223590D01*
X61069601Y-109181826D01*
X61069981Y-109120940D01*
X61070005Y-109086057D01*
X61070005Y-108900874D01*
X61013826Y-108843837D01*
X60985781Y-108812898D01*
X60967179Y-108787561D01*
X60962101Y-108773828D01*
X60967180Y-108766885D01*
X60976938Y-108769583D01*
X60994440Y-108784327D01*
X61022757Y-108813522D01*
X61048706Y-108841706D01*
X61106516Y-108905080D01*
X61106516Y-109089463D01*
X61106766Y-109160351D01*
X61107756Y-109210229D01*
X61109848Y-109242427D01*
X61113405Y-109260272D01*
X61118788Y-109267095D01*
X61125768Y-109266457D01*
X61148954Y-109259890D01*
X61156194Y-109259070D01*
X61161394Y-109247865D01*
X61165305Y-109218098D01*
X61167262Y-109175539D01*
X61167369Y-109162131D01*
X61167369Y-109088682D01*
X61191710Y-109088682D01*
X61191710Y-109167791D01*
X61192649Y-109208082D01*
X61195106Y-109236576D01*
X61198400Y-109246899D01*
X61212711Y-109241937D01*
X61239154Y-109229750D01*
X61244040Y-109227320D01*
X61270934Y-109210237D01*
X61303896Y-109184480D01*
X61337338Y-109155110D01*
X61365672Y-109127189D01*
X61383311Y-109105779D01*
X61386440Y-109098318D01*
X61375232Y-109093843D01*
X61345447Y-109090473D01*
X61302845Y-109088779D01*
X61289075Y-109088682D01*
X61191710Y-109088682D01*
X61167369Y-109088682D01*
X61167369Y-109065192D01*
X61291975Y-109061724D01*
X61349081Y-109059617D01*
X61386201Y-109056553D01*
X61407687Y-109051694D01*
X61417895Y-109044203D01*
X61420658Y-109036957D01*
X61419564Y-109024445D01*
X61406588Y-109018006D01*
X61376480Y-109015783D01*
X61360366Y-109015658D01*
X61324286Y-109014359D01*
X61298302Y-109007788D01*
X61273840Y-108991934D01*
X61242328Y-108962786D01*
X61237768Y-108958306D01*
X61179540Y-108900953D01*
X61179540Y-108886946D01*
X61179540Y-108708809D01*
X61179531Y-108707462D01*
X61203881Y-108707462D01*
X61203881Y-108886946D01*
X61255604Y-108939648D01*
X61285659Y-108968885D01*
X61308552Y-108984244D01*
X61333735Y-108989638D01*
X61370658Y-108988981D01*
X61374267Y-108988791D01*
X61441207Y-108985232D01*
X61444833Y-108901891D01*
X61440662Y-108812247D01*
X61418344Y-108735133D01*
X61375933Y-108664912D01*
X61354028Y-108638733D01*
X61324718Y-108607825D01*
X61300947Y-108585820D01*
X61287947Y-108577518D01*
X61283216Y-108588807D01*
X61279498Y-108619164D01*
X61277293Y-108663321D01*
X61276904Y-108693856D01*
X61275723Y-108751617D01*
X61272287Y-108788453D01*
X61266759Y-108802908D01*
X61264734Y-108802673D01*
X61259482Y-108787907D01*
X61255397Y-108754206D01*
X61252989Y-108706970D01*
X61252563Y-108674592D01*
X61252089Y-108618682D01*
X61250067Y-108582172D01*
X61245599Y-108560130D01*
X61237785Y-108547622D01*
X61228222Y-108541006D01*
X61218815Y-108536846D01*
X61212209Y-108538366D01*
X61207910Y-108548951D01*
X61205422Y-108571982D01*
X61204251Y-108610844D01*
X61203902Y-108668919D01*
X61203881Y-108707462D01*
X61179531Y-108707462D01*
X61179051Y-108632127D01*
X61177448Y-108577164D01*
X61174523Y-108541312D01*
X61170072Y-108521964D01*
X61164327Y-108516498D01*
X61140847Y-108513358D01*
X61121730Y-108508994D01*
X61108837Y-108506520D01*
X61100799Y-108510406D01*
X61096469Y-108524990D01*
X61094700Y-108554608D01*
X61094347Y-108603599D01*
X61094346Y-108612610D01*
X61093084Y-108665578D01*
X61089588Y-108703424D01*
X61084287Y-108722215D01*
X61082175Y-108723564D01*
X61076344Y-108712075D01*
X61072184Y-108680271D01*
X61070139Y-108632149D01*
X61070005Y-108614029D01*
X61069563Y-108561898D01*
X61067583Y-108529495D01*
X61063083Y-108512213D01*
X61055082Y-108505444D01*
X61046659Y-108504494D01*
X61017368Y-108506614D01*
X60999089Y-108516015D01*
X60989274Y-108537259D01*
X60985379Y-108574907D01*
X60984811Y-108615331D01*
X60984811Y-108711394D01*
X60857448Y-108711394D01*
X60799696Y-108711837D01*
X60761524Y-108713703D01*
X60738181Y-108717800D01*
X60724913Y-108724934D01*
X60717357Y-108735176D01*
X60712320Y-108747832D01*
X60583170Y-108747832D01*
X60581435Y-108736592D01*
X60573188Y-108729452D01*
X60553923Y-108725535D01*
X60519125Y-108723889D01*
X60467561Y-108723564D01*
X60413823Y-108723197D01*
X60379907Y-108721461D01*
X60361299Y-108717405D01*
X60353483Y-108710079D01*
X60351940Y-108699223D01*
X60353754Y-108687775D01*
X60354605Y-108687053D01*
X60737156Y-108687053D01*
X60848813Y-108687053D01*
X60960469Y-108687053D01*
X60960469Y-108607944D01*
X60958656Y-108564644D01*
X60953730Y-108536780D01*
X60947814Y-108528835D01*
X60916132Y-108537534D01*
X60874312Y-108561100D01*
X60827839Y-108595736D01*
X60782202Y-108637645D01*
X60766661Y-108654196D01*
X60737156Y-108687053D01*
X60354605Y-108687053D01*
X60362244Y-108680569D01*
G37*
%TO.C,D7*%
X87020000Y-113925000D02*
X87020000Y-115395000D01*
X87020000Y-115395000D02*
X89305000Y-115395000D01*
X89305000Y-113925000D02*
X87020000Y-113925000D01*
%TO.C,R8*%
X90017258Y-123292500D02*
X89542742Y-123292500D01*
X90017258Y-122247500D02*
X89542742Y-122247500D01*
%TO.C,Q1*%
X82502500Y-103410000D02*
X84177500Y-103410000D01*
X82502500Y-103410000D02*
X81852500Y-103410000D01*
X82502500Y-100290000D02*
X83152500Y-100290000D01*
X82502500Y-100290000D02*
X81852500Y-100290000D01*
%TO.C,U2*%
X59810000Y-124950000D02*
X63260000Y-124950000D01*
X59810000Y-124950000D02*
X57860000Y-124950000D01*
X59810000Y-119830000D02*
X61760000Y-119830000D01*
X59810000Y-119830000D02*
X57860000Y-119830000D01*
%TD*%
M02*
