%TF.GenerationSoftware,KiCad,Pcbnew,(7.0.0)*%
%TF.CreationDate,2023-03-19T21:05:42+01:00*%
%TF.ProjectId,ESP32-Touch_board,45535033-322d-4546-9f75-63685f626f61,rev?*%
%TF.SameCoordinates,Original*%
%TF.FileFunction,Soldermask,Top*%
%TF.FilePolarity,Negative*%
%FSLAX46Y46*%
G04 Gerber Fmt 4.6, Leading zero omitted, Abs format (unit mm)*
G04 Created by KiCad (PCBNEW (7.0.0)) date 2023-03-19 21:05:42*
%MOMM*%
%LPD*%
G01*
G04 APERTURE LIST*
G04 Aperture macros list*
%AMRoundRect*
0 Rectangle with rounded corners*
0 $1 Rounding radius*
0 $2 $3 $4 $5 $6 $7 $8 $9 X,Y pos of 4 corners*
0 Add a 4 corners polygon primitive as box body*
4,1,4,$2,$3,$4,$5,$6,$7,$8,$9,$2,$3,0*
0 Add four circle primitives for the rounded corners*
1,1,$1+$1,$2,$3*
1,1,$1+$1,$4,$5*
1,1,$1+$1,$6,$7*
1,1,$1+$1,$8,$9*
0 Add four rect primitives between the rounded corners*
20,1,$1+$1,$2,$3,$4,$5,0*
20,1,$1+$1,$4,$5,$6,$7,0*
20,1,$1+$1,$6,$7,$8,$9,0*
20,1,$1+$1,$8,$9,$2,$3,0*%
%AMFreePoly0*
4,1,19,0.500000,-0.750000,0.000000,-0.750000,0.000000,-0.744911,-0.071157,-0.744911,-0.207708,-0.704816,-0.327430,-0.627875,-0.420627,-0.520320,-0.479746,-0.390866,-0.500000,-0.250000,-0.500000,0.250000,-0.479746,0.390866,-0.420627,0.520320,-0.327430,0.627875,-0.207708,0.704816,-0.071157,0.744911,0.000000,0.744911,0.000000,0.750000,0.500000,0.750000,0.500000,-0.750000,0.500000,-0.750000,
$1*%
%AMFreePoly1*
4,1,19,0.000000,0.744911,0.071157,0.744911,0.207708,0.704816,0.327430,0.627875,0.420627,0.520320,0.479746,0.390866,0.500000,0.250000,0.500000,-0.250000,0.479746,-0.390866,0.420627,-0.520320,0.327430,-0.627875,0.207708,-0.704816,0.071157,-0.744911,0.000000,-0.744911,0.000000,-0.750000,-0.500000,-0.750000,-0.500000,0.750000,0.000000,0.750000,0.000000,0.744911,0.000000,0.744911,
$1*%
G04 Aperture macros list end*
%ADD10C,0.010000*%
%ADD11RoundRect,0.150000X0.587500X0.150000X-0.587500X0.150000X-0.587500X-0.150000X0.587500X-0.150000X0*%
%ADD12FreePoly0,90.000000*%
%ADD13FreePoly1,90.000000*%
%ADD14RoundRect,0.200000X-0.200000X-0.275000X0.200000X-0.275000X0.200000X0.275000X-0.200000X0.275000X0*%
%ADD15R,0.800000X0.400000*%
%ADD16R,0.400000X0.800000*%
%ADD17R,1.450000X1.450000*%
%ADD18R,0.700000X0.700000*%
%ADD19RoundRect,0.150000X-0.587500X-0.150000X0.587500X-0.150000X0.587500X0.150000X-0.587500X0.150000X0*%
%ADD20RoundRect,0.250000X0.250000X0.250000X-0.250000X0.250000X-0.250000X-0.250000X0.250000X-0.250000X0*%
%ADD21RoundRect,0.200000X-0.275000X0.200000X-0.275000X-0.200000X0.275000X-0.200000X0.275000X0.200000X0*%
%ADD22RoundRect,0.200000X0.200000X0.275000X-0.200000X0.275000X-0.200000X-0.275000X0.200000X-0.275000X0*%
%ADD23RoundRect,0.225000X0.225000X0.250000X-0.225000X0.250000X-0.225000X-0.250000X0.225000X-0.250000X0*%
%ADD24RoundRect,0.225000X-0.250000X0.225000X-0.250000X-0.225000X0.250000X-0.225000X0.250000X0.225000X0*%
%ADD25RoundRect,0.150000X-0.150000X0.825000X-0.150000X-0.825000X0.150000X-0.825000X0.150000X0.825000X0*%
%ADD26RoundRect,0.250000X-0.325000X-0.650000X0.325000X-0.650000X0.325000X0.650000X-0.325000X0.650000X0*%
%ADD27RoundRect,0.218750X-0.256250X0.218750X-0.256250X-0.218750X0.256250X-0.218750X0.256250X0.218750X0*%
%ADD28R,1.400000X4.200000*%
%ADD29RoundRect,0.250000X-0.250000X0.250000X-0.250000X-0.250000X0.250000X-0.250000X0.250000X0.250000X0*%
%ADD30RoundRect,0.200000X0.275000X-0.200000X0.275000X0.200000X-0.275000X0.200000X-0.275000X-0.200000X0*%
%ADD31RoundRect,0.218750X-0.218750X-0.256250X0.218750X-0.256250X0.218750X0.256250X-0.218750X0.256250X0*%
%ADD32RoundRect,0.250000X-0.650000X-1.550000X0.650000X-1.550000X0.650000X1.550000X-0.650000X1.550000X0*%
%ADD33O,1.800000X3.600000*%
%ADD34R,0.900000X1.350000*%
%ADD35RoundRect,0.250000X-1.500000X-0.550000X1.500000X-0.550000X1.500000X0.550000X-1.500000X0.550000X0*%
%ADD36RoundRect,0.225000X-0.225000X-0.250000X0.225000X-0.250000X0.225000X0.250000X-0.225000X0.250000X0*%
%ADD37RoundRect,0.250000X-0.375000X-0.625000X0.375000X-0.625000X0.375000X0.625000X-0.375000X0.625000X0*%
%ADD38RoundRect,0.150000X0.675000X0.150000X-0.675000X0.150000X-0.675000X-0.150000X0.675000X-0.150000X0*%
%ADD39R,1.350000X1.350000*%
%ADD40O,1.350000X1.350000*%
%ADD41R,1.700000X1.700000*%
%ADD42O,1.700000X1.700000*%
G04 APERTURE END LIST*
%TO.C,U3*%
G36*
X71700000Y-101575000D02*
G01*
X70050000Y-101575000D01*
X70050000Y-100585000D01*
X70710000Y-99925000D01*
X71700000Y-99925000D01*
X71700000Y-101575000D01*
G37*
D10*
X71700000Y-101575000D02*
X70050000Y-101575000D01*
X70050000Y-100585000D01*
X70710000Y-99925000D01*
X71700000Y-99925000D01*
X71700000Y-101575000D01*
%TD*%
D11*
%TO.C,Q2*%
X83465000Y-108570000D03*
X83465000Y-106670000D03*
X81590000Y-107620000D03*
%TD*%
D12*
%TO.C,J3*%
X89520000Y-126220000D03*
D13*
X89520000Y-124920000D03*
%TD*%
D14*
%TO.C,R10*%
X62090000Y-104070000D03*
X63740000Y-104070000D03*
%TD*%
D15*
%TO.C,U3*%
X66949999Y-98724999D03*
X66949999Y-99524999D03*
X66949999Y-100324999D03*
X66949999Y-101124999D03*
X66949999Y-101924999D03*
X66949999Y-102724999D03*
X66949999Y-103524999D03*
X66949999Y-104324999D03*
X66949999Y-105124999D03*
X66949999Y-105924999D03*
X66949999Y-106724999D03*
D16*
X68049999Y-107624999D03*
X68849999Y-107624999D03*
X69649999Y-107624999D03*
X70449999Y-107624999D03*
X71249999Y-107624999D03*
X72049999Y-107624999D03*
X72849999Y-107624999D03*
X73649999Y-107624999D03*
X74449999Y-107624999D03*
X75249999Y-107624999D03*
X76049999Y-107624999D03*
X76849999Y-107624999D03*
X77649999Y-107624999D03*
D15*
X78749999Y-106724999D03*
X78749999Y-105924999D03*
X78749999Y-105124999D03*
X78749999Y-104324999D03*
X78749999Y-103524999D03*
X78749999Y-102724999D03*
X78749999Y-101924999D03*
X78749999Y-101124999D03*
X78749999Y-100324999D03*
X78749999Y-99524999D03*
X78749999Y-98724999D03*
D16*
X77649999Y-97824999D03*
X76849999Y-97824999D03*
X76049999Y-97824999D03*
X75249999Y-97824999D03*
X74449999Y-97824999D03*
X73649999Y-97824999D03*
X72849999Y-97824999D03*
X72049999Y-97824999D03*
X71249999Y-97824999D03*
X70449999Y-97824999D03*
X69649999Y-97824999D03*
X68849999Y-97824999D03*
X68049999Y-97824999D03*
D17*
X72849999Y-100749999D03*
X74824999Y-100749999D03*
X74824999Y-102724999D03*
X74824999Y-104699999D03*
X72849999Y-104699999D03*
X70874999Y-104699999D03*
X70874999Y-102724999D03*
X72849999Y-102724999D03*
D18*
X78799999Y-97774999D03*
X78799999Y-107674999D03*
X66899999Y-107674999D03*
X66899999Y-97774999D03*
%TD*%
D19*
%TO.C,D5*%
X83947500Y-127427500D03*
X83947500Y-129327500D03*
X85822500Y-128377500D03*
%TD*%
D14*
%TO.C,R6*%
X87640000Y-119190000D03*
X89290000Y-119190000D03*
%TD*%
%TO.C,R14*%
X82125000Y-94740000D03*
X83775000Y-94740000D03*
%TD*%
D20*
%TO.C,D1*%
X59367500Y-127015000D03*
X56867500Y-127015000D03*
%TD*%
D21*
%TO.C,R5*%
X80750000Y-121590000D03*
X80750000Y-123240000D03*
%TD*%
D22*
%TO.C,R13*%
X83785000Y-96530000D03*
X82135000Y-96530000D03*
%TD*%
D23*
%TO.C,C8*%
X63690000Y-101766667D03*
X62140000Y-101766667D03*
%TD*%
D24*
%TO.C,C5*%
X85095000Y-123360000D03*
X85095000Y-124910000D03*
%TD*%
D25*
%TO.C,U1*%
X83900000Y-111725000D03*
X82630000Y-111725000D03*
X81360000Y-111725000D03*
X80090000Y-111725000D03*
X80090000Y-116675000D03*
X81360000Y-116675000D03*
X82630000Y-116675000D03*
X83900000Y-116675000D03*
%TD*%
D26*
%TO.C,C7*%
X67245000Y-116235000D03*
X70195000Y-116235000D03*
%TD*%
D22*
%TO.C,R11*%
X83780000Y-98250000D03*
X82130000Y-98250000D03*
%TD*%
D21*
%TO.C,R3*%
X77915000Y-115590000D03*
X77915000Y-117240000D03*
%TD*%
D24*
%TO.C,C6*%
X86955000Y-123375000D03*
X86955000Y-124925000D03*
%TD*%
D27*
%TO.C,D2*%
X75415000Y-119535000D03*
X75415000Y-121110000D03*
%TD*%
D28*
%TO.C,L2*%
X59609999Y-116177499D03*
X63309999Y-116177499D03*
%TD*%
D21*
%TO.C,R2*%
X75430000Y-115590000D03*
X75430000Y-117240000D03*
%TD*%
D29*
%TO.C,D4*%
X56750000Y-114990000D03*
X56750000Y-117490000D03*
%TD*%
D24*
%TO.C,C1*%
X76200000Y-111175000D03*
X76200000Y-112725000D03*
%TD*%
D30*
%TO.C,R4*%
X83240000Y-123240000D03*
X83240000Y-121590000D03*
%TD*%
D22*
%TO.C,R12*%
X83740000Y-104820000D03*
X82090000Y-104820000D03*
%TD*%
D27*
%TO.C,D3*%
X77910000Y-119517500D03*
X77910000Y-121092500D03*
%TD*%
D24*
%TO.C,C2*%
X77920000Y-111175000D03*
X77920000Y-112725000D03*
%TD*%
D23*
%TO.C,C9*%
X63690000Y-99463334D03*
X62140000Y-99463334D03*
%TD*%
D31*
%TO.C,D6*%
X87717500Y-116945000D03*
X89292500Y-116945000D03*
%TD*%
D27*
%TO.C,D8*%
X67560000Y-111202500D03*
X67560000Y-112777500D03*
%TD*%
D32*
%TO.C,J1*%
X67185000Y-130800000D03*
D33*
X70994999Y-130799999D03*
X74804999Y-130799999D03*
X78614999Y-130799999D03*
%TD*%
D23*
%TO.C,C10*%
X63690000Y-97160000D03*
X62140000Y-97160000D03*
%TD*%
D21*
%TO.C,R1*%
X85145000Y-119850000D03*
X85145000Y-121500000D03*
%TD*%
D14*
%TO.C,R7*%
X87640000Y-112415000D03*
X89290000Y-112415000D03*
%TD*%
D21*
%TO.C,R17*%
X72760000Y-111125000D03*
X72760000Y-112775000D03*
%TD*%
D30*
%TO.C,R15*%
X74480000Y-112775000D03*
X74480000Y-111125000D03*
%TD*%
D34*
%TO.C,L1*%
X83244999Y-120132499D03*
X80744999Y-120132499D03*
X80744999Y-124682499D03*
X83244999Y-124682499D03*
%TD*%
D21*
%TO.C,R16*%
X71040000Y-111125000D03*
X71040000Y-112775000D03*
%TD*%
D35*
%TO.C,C3*%
X66150000Y-122085000D03*
X71550000Y-122085000D03*
%TD*%
D36*
%TO.C,C4*%
X61630000Y-127015000D03*
X63180000Y-127015000D03*
%TD*%
D37*
%TO.C,F1*%
X59890000Y-129405000D03*
X62690000Y-129405000D03*
%TD*%
D30*
%TO.C,R9*%
X69320000Y-112775000D03*
X69320000Y-111125000D03*
%TD*%
D31*
%TO.C,D7*%
X87717500Y-114660000D03*
X89292500Y-114660000D03*
%TD*%
D22*
%TO.C,R8*%
X90605000Y-122770000D03*
X88955000Y-122770000D03*
%TD*%
D11*
%TO.C,Q1*%
X83440000Y-102800000D03*
X83440000Y-100900000D03*
X81565000Y-101850000D03*
%TD*%
D38*
%TO.C,U2*%
X62435000Y-124295000D03*
X62435000Y-123025000D03*
X62435000Y-121755000D03*
X62435000Y-120485000D03*
X57185000Y-120485000D03*
X57185000Y-121755000D03*
X57185000Y-123025000D03*
X57185000Y-124295000D03*
%TD*%
D39*
%TO.C,J5*%
X87664999Y-108534999D03*
D40*
X87664999Y-106534999D03*
X87664999Y-104534999D03*
X87664999Y-102534999D03*
X87664999Y-100534999D03*
X87664999Y-98534999D03*
%TD*%
D41*
%TO.C,J4*%
X52729999Y-119884999D03*
D42*
X52729999Y-117344999D03*
X52729999Y-114804999D03*
X52729999Y-112264999D03*
X52729999Y-109724999D03*
X52729999Y-107184999D03*
%TD*%
D41*
%TO.C,J2*%
X93089999Y-119884999D03*
D42*
X93089999Y-117344999D03*
X93089999Y-114804999D03*
X93089999Y-112264999D03*
X93089999Y-109724999D03*
X93089999Y-107184999D03*
%TD*%
M02*
